<svg width="106" height="78" viewBox="0 0 106 78" fill="none" xmlns="http://www.w3.org/2000/svg">
<rect x="29" y="1" width="76" height="76" rx="13" fill="#FFDECC"/>
<rect x="29" y="1" width="76" height="76" rx="13" stroke="#262626" stroke-width="2"/>
<path d="M67 23.0625C60.5452 23.0625 55.3125 28.2952 55.3125 34.75C55.3125 39.0719 57.6589 42.8446 61.1423 44.8656C62.1134 45.4291 62.7215 46.2936 62.749 47.1636C62.7642 47.6435 63.0993 48.0536 63.5666 48.164C64.0644 48.2817 64.5716 48.3743 65.0869 48.4405C65.5454 48.4994 65.9378 48.1322 65.9378 47.67V41.0668C65.4854 41.0168 65.0422 40.9352 64.6104 40.824C64.0421 40.6778 63.7 40.0985 63.8463 39.5302C63.9926 38.9619 64.5718 38.6198 65.1401 38.7661C65.7334 38.9188 66.3565 39.0003 67.0003 39.0003C67.644 39.0003 68.2671 38.9188 68.8604 38.7661C69.4287 38.6198 70.008 38.9619 70.1542 39.5302C70.3005 40.0985 69.9584 40.6778 69.3901 40.824C68.9583 40.9352 68.5151 41.0168 68.0628 41.0668V47.6699C68.0628 48.1321 68.4552 48.4994 68.9136 48.4404C69.4287 48.3742 69.9358 48.2817 70.4334 48.164C70.9007 48.0536 71.2358 47.6435 71.251 47.1636C71.2785 46.2936 71.8866 45.4291 72.8577 44.8656C76.3411 42.8446 78.6875 39.0719 78.6875 34.75C78.6875 28.2952 73.4548 23.0625 67 23.0625Z" fill="#262626"/>
<path fill-rule="evenodd" clip-rule="evenodd" d="M62.7686 50.1912C62.878 49.6147 63.434 49.2359 64.0105 49.3453C64.9781 49.5288 65.9773 49.625 67 49.625C68.0227 49.625 69.0219 49.5288 69.9895 49.3453C70.566 49.2359 71.122 49.6147 71.2314 50.1912C71.3407 50.7677 70.962 51.3237 70.3855 51.4331C69.2881 51.6413 68.1563 51.75 67 51.75C65.8438 51.75 64.7119 51.6413 63.6145 51.4331C63.038 51.3237 62.6593 50.7677 62.7686 50.1912Z" fill="#262626"/>
<path fill-rule="evenodd" clip-rule="evenodd" d="M63.8183 53.654C63.8793 53.0703 64.4019 52.6467 64.9855 52.7078C65.6472 52.777 66.3193 52.8125 67 52.8125C67.6807 52.8125 68.3528 52.777 69.0145 52.7078C69.5981 52.6467 70.1207 53.0703 70.1817 53.654C70.2428 54.2376 69.8192 54.7602 69.2355 54.8212C68.5005 54.8981 67.7547 54.9375 67 54.9375C66.2453 54.9375 65.4995 54.8981 64.7645 54.8212C64.1808 54.7602 63.7572 54.2376 63.8183 53.654Z" fill="#262626"/>
</svg>
