<svg width="569" height="618" viewBox="0 0 569 618" fill="none" xmlns="http://www.w3.org/2000/svg">
<g opacity="0.9">
<g filter="url(#filter0_d_101_73)">
<path d="M170.119 458.882C186.005 457.797 198.003 444.038 196.917 428.152C195.831 412.266 182.073 400.269 166.187 401.354C150.301 402.44 138.303 416.198 139.389 432.084C140.475 447.97 154.233 459.968 170.119 458.882Z" fill="#FFF5F0" fill-opacity="0.5" shape-rendering="crispEdges"/>
<path d="M170.187 459.88C186.624 458.757 199.039 444.521 197.915 428.084C196.792 411.647 182.556 399.233 166.119 400.356C149.682 401.48 137.268 415.715 138.391 432.153C139.515 448.59 153.75 461.004 170.187 459.88Z" stroke="#262626" stroke-width="2" shape-rendering="crispEdges"/>
</g>
<g filter="url(#filter1_d_101_73)">
<path d="M252.751 509.881C268.095 509.881 280.533 497.443 280.533 482.1C280.533 466.756 268.095 454.318 252.751 454.318C237.407 454.318 224.969 466.756 224.969 482.1C224.969 497.443 237.407 509.881 252.751 509.881Z" fill="#FFF5F0" fill-opacity="0.5" shape-rendering="crispEdges"/>
<path d="M252.751 510.882C268.647 510.882 281.533 497.996 281.533 482.1C281.533 466.204 268.647 453.317 252.751 453.317C236.855 453.317 223.969 466.204 223.969 482.1C223.969 497.996 236.855 510.882 252.751 510.882Z" stroke="#262626" stroke-width="2" shape-rendering="crispEdges"/>
</g>
<g filter="url(#filter2_d_101_73)">
<path d="M321.619 490.199C321.619 475.427 333.58 463.466 348.352 463.466C363.124 463.466 375.085 475.427 375.085 490.199C375.085 504.971 363.124 516.932 348.352 516.932C333.58 516.932 321.619 504.971 321.619 490.199Z" fill="#FFF5F0" fill-opacity="0.5" shape-rendering="crispEdges"/>
<path d="M348.352 462.466C333.027 462.466 320.619 474.874 320.619 490.199C320.619 505.524 333.027 517.932 348.352 517.932C363.677 517.932 376.085 505.524 376.085 490.199C376.085 474.874 363.677 462.466 348.352 462.466Z" stroke="#262626" stroke-width="2" shape-rendering="crispEdges"/>
</g>
<g filter="url(#filter3_d_101_73)">
<path d="M413.232 454.569C413.232 440.384 424.731 428.843 438.957 428.843C453.184 428.843 464.683 440.342 464.683 454.569C464.683 468.796 453.184 480.295 438.957 480.295C424.731 480.295 413.232 468.796 413.232 454.569Z" fill="#FFF5F0" fill-opacity="0.5" shape-rendering="crispEdges"/>
<path d="M438.957 427.843C424.177 427.843 412.232 439.833 412.232 454.569C412.232 469.348 424.178 481.295 438.957 481.295C453.737 481.295 465.683 469.348 465.683 454.569C465.683 439.79 453.737 427.843 438.957 427.843Z" stroke="#262626" stroke-width="2" shape-rendering="crispEdges"/>
</g>
<g filter="url(#filter4_d_101_73)">
<path d="M481.848 379.575C481.848 365.936 492.885 354.898 506.524 354.898C520.164 354.898 531.201 365.936 531.201 379.575C531.201 393.214 520.164 404.251 506.524 404.251C492.885 404.251 481.848 393.214 481.848 379.575Z" fill="#FFF5F0" fill-opacity="0.5" shape-rendering="crispEdges"/>
<path d="M506.524 353.898C492.333 353.898 480.848 365.383 480.848 379.575C480.848 393.766 492.333 405.251 506.524 405.251C520.716 405.251 532.201 393.766 532.201 379.575C532.201 365.383 520.716 353.898 506.524 353.898Z" stroke="#262626" stroke-width="2" shape-rendering="crispEdges"/>
</g>
<g filter="url(#filter5_d_101_73)">
<path d="M512.106 287.122C512.106 274.071 522.681 263.495 535.733 263.495C548.785 263.495 559.36 274.071 559.36 287.122C559.36 300.174 548.785 310.75 535.733 310.75C522.681 310.75 512.106 300.174 512.106 287.122Z" fill="#FFF5F0" fill-opacity="0.5" shape-rendering="crispEdges"/>
<path d="M535.733 262.495C522.129 262.495 511.105 273.518 511.105 287.122C511.105 300.727 522.129 311.75 535.733 311.75C549.337 311.75 560.36 300.727 560.36 287.122C560.36 273.518 549.337 262.495 535.733 262.495Z" stroke="#262626" stroke-width="2" shape-rendering="crispEdges"/>
</g>
<g filter="url(#filter6_d_101_73)">
<path d="M502.957 191.522C502.957 179.016 513.071 168.902 525.577 168.902C538.083 168.902 548.197 179.016 548.197 191.522C548.197 204.028 538.083 214.142 525.577 214.142C513.071 214.142 502.957 204.028 502.957 191.522Z" fill="#FFF5F0" fill-opacity="0.5" shape-rendering="crispEdges"/>
<path d="M525.577 167.902C512.519 167.902 501.957 178.464 501.957 191.522C501.957 204.581 512.519 215.143 525.577 215.143C538.636 215.143 549.198 204.581 549.198 191.522C549.198 178.464 538.636 167.902 525.577 167.902Z" stroke="#262626" stroke-width="2" shape-rendering="crispEdges"/>
</g>
<g filter="url(#filter7_d_101_73)">
<path d="M454.402 105.826C454.402 93.9076 464.054 84.2553 475.972 84.2553C487.891 84.2553 497.543 93.9076 497.543 105.826C497.543 117.745 487.891 127.397 475.972 127.397C464.054 127.397 454.402 117.745 454.402 105.826Z" fill="#FFF5F0" fill-opacity="0.5" shape-rendering="crispEdges"/>
<path d="M475.972 83.2549C463.501 83.2549 453.401 93.3551 453.401 105.826C453.401 118.297 463.501 128.397 475.972 128.397C488.443 128.397 498.544 118.297 498.544 105.826C498.544 93.3551 488.443 83.2549 475.972 83.2549Z" stroke="#262626" stroke-width="2" shape-rendering="crispEdges"/>
</g>
<g filter="url(#filter8_d_101_73)">
<path d="M374.539 45.9817C374.539 34.6507 383.73 25.46 395.061 25.46C406.392 25.46 415.583 34.6507 415.583 45.9817C415.583 57.3127 406.392 66.5034 395.061 66.5034C383.73 66.5034 374.539 57.3127 374.539 45.9817Z" fill="#FFF5F0" fill-opacity="0.5" shape-rendering="crispEdges"/>
<path d="M395.061 24.4597C383.177 24.4597 373.539 34.0983 373.539 45.9817C373.539 57.8652 383.177 67.5038 395.061 67.5038C406.944 67.5038 416.583 57.8652 416.583 45.9817C416.583 34.0983 406.944 24.4597 395.061 24.4597Z" stroke="#262626" stroke-width="2" shape-rendering="crispEdges"/>
</g>
<g filter="url(#filter9_d_101_73)">
<path d="M281.96 21.5152C281.96 10.7298 290.689 2.00072 301.475 2.00072C312.26 2.00072 320.989 10.7298 320.989 21.5152C320.989 32.3007 312.26 41.0297 301.475 41.0297C290.689 41.0297 281.96 32.3007 281.96 21.5152Z" fill="#FFF5F0" fill-opacity="0.5" shape-rendering="crispEdges"/>
<path d="M301.475 1.00036C290.137 1.00036 280.96 10.1773 280.96 21.5152C280.96 32.8531 290.137 42.0301 301.475 42.0301C312.813 42.0301 321.99 32.8531 321.99 21.5152C321.99 10.1773 312.813 1.00036 301.475 1.00036Z" stroke="#262626" stroke-width="2" shape-rendering="crispEdges"/>
</g>
<g filter="url(#filter10_d_101_73)">
<path d="M187.367 32.5104C187.367 22.3125 195.635 14.0451 205.832 14.0451C216.03 14.0451 224.298 22.3125 224.298 32.5104C224.298 42.7083 216.03 50.9757 205.832 50.9757C195.635 50.9757 187.367 42.7083 187.367 32.5104Z" fill="#FFF5F0" fill-opacity="0.5" shape-rendering="crispEdges"/>
<path d="M205.832 13.0447C195.082 13.0447 186.367 21.76 186.367 32.5104C186.367 43.2608 195.082 51.9761 205.832 51.9761C216.583 51.9761 225.298 43.2608 225.298 32.5104C225.298 21.76 216.583 13.0447 205.832 13.0447Z" stroke="#262626" stroke-width="2" shape-rendering="crispEdges"/>
</g>
<g filter="url(#filter11_d_101_73)">
<path d="M101.378 79.0092C101.378 69.3569 109.184 61.5511 118.836 61.5511C128.489 61.5511 136.295 69.3569 136.295 79.0092C136.295 88.6616 128.489 96.4674 118.836 96.4674C109.184 96.4674 101.378 88.6616 101.378 79.0092Z" fill="#FFF5F0" fill-opacity="0.5" shape-rendering="crispEdges"/>
<path d="M118.836 60.5507C108.632 60.5507 100.378 68.8044 100.378 79.0092C100.378 89.214 108.632 97.4677 118.836 97.4677C129.041 97.4677 137.295 89.214 137.295 79.0092C137.295 68.8044 129.041 60.5507 118.836 60.5507Z" stroke="#262626" stroke-width="2" shape-rendering="crispEdges"/>
</g>
<g filter="url(#filter12_d_101_73)">
<path d="M36.5392 156.228C36.5392 147.163 43.8833 139.819 52.9481 139.819C62.0129 139.819 69.3572 147.163 69.3572 156.228C69.3572 165.293 62.0129 172.637 52.9481 172.637C43.8833 172.637 36.5392 165.293 36.5392 156.228Z" fill="#FFF5F0" fill-opacity="0.5" shape-rendering="crispEdges"/>
<path d="M52.9481 138.819C43.3308 138.819 35.5388 146.611 35.5388 156.228C35.5388 165.845 43.3308 173.637 52.9481 173.637C62.5653 173.637 70.3575 165.845 70.3575 156.228C70.3575 146.611 62.5653 138.819 52.9481 138.819Z" stroke="#262626" stroke-width="2" shape-rendering="crispEdges"/>
</g>
<g filter="url(#filter13_d_101_73)">
<path d="M3.30196 247.506C3.30196 239.028 10.1846 232.146 18.6619 232.146C27.1392 232.146 34.0216 239.028 34.0216 247.506C34.0216 255.983 27.1392 262.865 18.6619 262.865C10.1846 262.865 3.30196 255.983 3.30196 247.506Z" fill="#FFF5F0" fill-opacity="0.5" shape-rendering="crispEdges"/>
<path d="M18.6619 231.145C9.63217 231.145 2.30161 238.476 2.30161 247.506C2.30161 256.535 9.63217 263.866 18.6619 263.866C27.6917 263.866 35.022 256.535 35.022 247.506C35.022 238.476 27.6917 231.145 18.6619 231.145Z" stroke="#262626" stroke-width="2" shape-rendering="crispEdges"/>
</g>
<g filter="url(#filter14_d_101_73)">
<path d="M2.00072 343.693C2.00072 335.762 8.4218 329.341 16.3535 329.341C24.2852 329.341 30.706 335.762 30.706 343.693C30.706 351.625 24.2852 358.046 16.3535 358.046C8.4218 358.046 2.00072 351.625 2.00072 343.693Z" fill="#FFF5F0" fill-opacity="0.5" shape-rendering="crispEdges"/>
<path d="M16.3535 328.34C7.86934 328.34 1.00036 335.209 1.00036 343.693C1.00036 352.177 7.86934 359.046 16.3535 359.046C24.8377 359.046 31.7064 352.177 31.7064 343.693C31.7064 335.209 24.8377 328.34 16.3535 328.34Z" stroke="#262626" stroke-width="2" shape-rendering="crispEdges"/>
</g>
<g filter="url(#filter15_d_101_73)">
<path d="M32.6786 436.23C32.6786 428.886 38.638 422.927 45.9822 422.927C53.3264 422.927 59.2855 428.886 59.2855 436.23C59.2855 443.574 53.3264 449.533 45.9822 449.533C38.638 449.533 32.6786 443.574 32.6786 436.23Z" fill="#FFF5F0" fill-opacity="0.5" shape-rendering="crispEdges"/>
<path d="M45.9822 421.926C38.0856 421.926 31.6782 428.333 31.6782 436.23C31.6782 444.127 38.0856 450.534 45.9822 450.534C53.8788 450.534 60.2859 444.127 60.2859 436.23C60.2859 428.333 53.8788 421.926 45.9822 421.926Z" stroke="#262626" stroke-width="2" shape-rendering="crispEdges"/>
</g>
<g filter="url(#filter16_d_101_73)">
<path d="M95.1665 516.386C95.1665 509.63 100.664 504.132 107.421 504.132C114.177 504.132 119.675 509.63 119.675 516.386C119.675 523.143 114.177 528.64 107.421 528.64C100.664 528.64 95.1665 523.143 95.1665 516.386Z" fill="#FFF5F0" fill-opacity="0.5" shape-rendering="crispEdges"/>
<path d="M107.421 503.132C100.112 503.132 94.1662 509.077 94.1662 516.386C94.1662 523.695 100.112 529.641 107.421 529.641C114.73 529.641 120.676 523.695 120.676 516.386C120.676 509.077 114.73 503.132 107.421 503.132Z" stroke="#262626" stroke-width="2" shape-rendering="crispEdges"/>
</g>
<g filter="url(#filter17_d_101_73)">
<path d="M179.352 572.244C179.352 566.033 184.388 560.997 190.599 560.997C196.81 560.997 201.846 566.033 201.846 572.244C201.846 578.455 196.81 583.491 190.599 583.491C184.388 583.491 179.352 578.455 179.352 572.244Z" fill="#FFF5F0" fill-opacity="0.5" shape-rendering="crispEdges"/>
<path d="M190.599 559.996C183.835 559.996 178.352 565.48 178.352 572.244C178.352 579.007 183.835 584.491 190.599 584.491C197.363 584.491 202.846 579.007 202.846 572.244C202.846 565.48 197.363 559.996 190.599 559.996Z" stroke="#262626" stroke-width="2" shape-rendering="crispEdges"/>
</g>
<g filter="url(#filter18_d_101_73)">
<path d="M273.609 599.27C273.609 593.647 278.183 589.072 283.807 589.072C289.43 589.072 294.005 593.647 294.005 599.27C294.005 604.894 289.43 609.468 283.807 609.468C278.183 609.468 273.609 604.894 273.609 599.27Z" fill="#FFF5F0" fill-opacity="0.5" shape-rendering="crispEdges"/>
<path d="M283.807 588.072C277.631 588.072 272.608 593.094 272.608 599.27C272.608 605.446 277.631 610.469 283.807 610.469C289.983 610.469 295.005 605.446 295.005 599.27C295.005 593.094 289.983 588.072 283.807 588.072Z" stroke="#262626" stroke-width="2" shape-rendering="crispEdges"/>
</g>
<g filter="url(#filter19_d_101_73)">
<path d="M380.079 606.698C385.132 606.698 389.228 602.602 389.228 597.55C389.228 592.497 385.132 588.401 380.079 588.401C375.026 588.401 370.93 592.497 370.93 597.55C370.93 602.602 375.026 606.698 380.079 606.698Z" fill="#FFF5F0" fill-opacity="0.5" shape-rendering="crispEdges"/>
<path d="M380.079 607.699C385.684 607.699 390.228 603.155 390.228 597.55C390.228 591.944 385.684 587.401 380.079 587.401C374.474 587.401 369.93 591.944 369.93 597.55C369.93 603.155 374.474 607.699 380.079 607.699Z" stroke="#262626" stroke-width="2" shape-rendering="crispEdges"/>
</g>
<g filter="url(#filter20_d_101_73)">
<path d="M464.306 566.998C464.306 562.507 467.957 558.856 472.448 558.856C476.938 558.856 480.589 562.507 480.589 566.998C480.589 571.488 476.938 575.139 472.448 575.139C467.957 575.139 464.306 571.488 464.306 566.998Z" fill="#FFF5F0" fill-opacity="0.5" shape-rendering="crispEdges"/>
<path d="M472.448 557.856C467.405 557.856 463.306 561.955 463.306 566.998C463.306 572.041 467.405 576.14 472.448 576.14C477.491 576.14 481.59 572.041 481.59 566.998C481.59 561.955 477.491 557.856 472.448 557.856Z" stroke="#262626" stroke-width="2" shape-rendering="crispEdges"/>
</g>
<g filter="url(#filter21_d_101_73)">
<path d="M546.812 507.699C546.812 503.796 550.002 500.607 553.905 500.607C557.808 500.607 560.997 503.796 560.997 507.699C560.997 511.602 557.808 514.792 553.905 514.792C550.002 514.792 546.812 511.602 546.812 507.699Z" fill="#FFF5F0" fill-opacity="0.5" shape-rendering="crispEdges"/>
<path d="M553.905 499.607C549.449 499.607 545.812 503.244 545.812 507.699C545.812 512.155 549.449 515.792 553.905 515.792C558.36 515.792 561.997 512.155 561.997 507.699C561.997 503.244 558.36 499.607 553.905 499.607Z" stroke="#262626" stroke-width="2" shape-rendering="crispEdges"/>
</g>
</g>
<defs>
<filter id="filter0_d_101_73" x="137.32" y="399.285" width="67.6683" height="67.6683" filterUnits="userSpaceOnUse" color-interpolation-filters="sRGB">
<feFlood flood-opacity="0" result="BackgroundImageFix"/>
<feColorMatrix in="SourceAlpha" type="matrix" values="0 0 0 0 0 0 0 0 0 0 0 0 0 0 0 0 0 0 127 0" result="hardAlpha"/>
<feOffset dx="6" dy="6"/>
<feComposite in2="hardAlpha" operator="out"/>
<feColorMatrix type="matrix" values="0 0 0 0 0.0980392 0 0 0 0 0.0980392 0 0 0 0 0.0980392 0 0 0 1 0"/>
<feBlend mode="normal" in2="BackgroundImageFix" result="effect1_dropShadow_101_73"/>
<feBlend mode="normal" in="SourceGraphic" in2="effect1_dropShadow_101_73" result="shape"/>
</filter>
<filter id="filter1_d_101_73" x="222.968" y="452.317" width="65.5674" height="65.5674" filterUnits="userSpaceOnUse" color-interpolation-filters="sRGB">
<feFlood flood-opacity="0" result="BackgroundImageFix"/>
<feColorMatrix in="SourceAlpha" type="matrix" values="0 0 0 0 0 0 0 0 0 0 0 0 0 0 0 0 0 0 127 0" result="hardAlpha"/>
<feOffset dx="6" dy="6"/>
<feComposite in2="hardAlpha" operator="out"/>
<feColorMatrix type="matrix" values="0 0 0 0 0.0980392 0 0 0 0 0.0980392 0 0 0 0 0.0980392 0 0 0 1 0"/>
<feBlend mode="normal" in2="BackgroundImageFix" result="effect1_dropShadow_101_73"/>
<feBlend mode="normal" in="SourceGraphic" in2="effect1_dropShadow_101_73" result="shape"/>
</filter>
<filter id="filter2_d_101_73" x="319.619" y="461.465" width="63.469" height="63.4691" filterUnits="userSpaceOnUse" color-interpolation-filters="sRGB">
<feFlood flood-opacity="0" result="BackgroundImageFix"/>
<feColorMatrix in="SourceAlpha" type="matrix" values="0 0 0 0 0 0 0 0 0 0 0 0 0 0 0 0 0 0 127 0" result="hardAlpha"/>
<feOffset dx="6" dy="6"/>
<feComposite in2="hardAlpha" operator="out"/>
<feColorMatrix type="matrix" values="0 0 0 0 0.0980392 0 0 0 0 0.0980392 0 0 0 0 0.0980392 0 0 0 1 0"/>
<feBlend mode="normal" in2="BackgroundImageFix" result="effect1_dropShadow_101_73"/>
<feBlend mode="normal" in="SourceGraphic" in2="effect1_dropShadow_101_73" result="shape"/>
</filter>
<filter id="filter3_d_101_73" x="411.231" y="426.843" width="61.4544" height="61.4547" filterUnits="userSpaceOnUse" color-interpolation-filters="sRGB">
<feFlood flood-opacity="0" result="BackgroundImageFix"/>
<feColorMatrix in="SourceAlpha" type="matrix" values="0 0 0 0 0 0 0 0 0 0 0 0 0 0 0 0 0 0 127 0" result="hardAlpha"/>
<feOffset dx="6" dy="6"/>
<feComposite in2="hardAlpha" operator="out"/>
<feColorMatrix type="matrix" values="0 0 0 0 0.0980392 0 0 0 0 0.0980392 0 0 0 0 0.0980392 0 0 0 1 0"/>
<feBlend mode="normal" in2="BackgroundImageFix" result="effect1_dropShadow_101_73"/>
<feBlend mode="normal" in="SourceGraphic" in2="effect1_dropShadow_101_73" result="shape"/>
</filter>
<filter id="filter4_d_101_73" x="479.847" y="352.898" width="59.3565" height="59.3563" filterUnits="userSpaceOnUse" color-interpolation-filters="sRGB">
<feFlood flood-opacity="0" result="BackgroundImageFix"/>
<feColorMatrix in="SourceAlpha" type="matrix" values="0 0 0 0 0 0 0 0 0 0 0 0 0 0 0 0 0 0 127 0" result="hardAlpha"/>
<feOffset dx="6" dy="6"/>
<feComposite in2="hardAlpha" operator="out"/>
<feColorMatrix type="matrix" values="0 0 0 0 0.0980392 0 0 0 0 0.0980392 0 0 0 0 0.0980392 0 0 0 1 0"/>
<feBlend mode="normal" in2="BackgroundImageFix" result="effect1_dropShadow_101_73"/>
<feBlend mode="normal" in="SourceGraphic" in2="effect1_dropShadow_101_73" result="shape"/>
</filter>
<filter id="filter5_d_101_73" x="510.105" y="261.495" width="57.2578" height="57.2581" filterUnits="userSpaceOnUse" color-interpolation-filters="sRGB">
<feFlood flood-opacity="0" result="BackgroundImageFix"/>
<feColorMatrix in="SourceAlpha" type="matrix" values="0 0 0 0 0 0 0 0 0 0 0 0 0 0 0 0 0 0 127 0" result="hardAlpha"/>
<feOffset dx="6" dy="6"/>
<feComposite in2="hardAlpha" operator="out"/>
<feColorMatrix type="matrix" values="0 0 0 0 0.0980392 0 0 0 0 0.0980392 0 0 0 0 0.0980392 0 0 0 1 0"/>
<feBlend mode="normal" in2="BackgroundImageFix" result="effect1_dropShadow_101_73"/>
<feBlend mode="normal" in="SourceGraphic" in2="effect1_dropShadow_101_73" result="shape"/>
</filter>
<filter id="filter6_d_101_73" x="500.957" y="166.902" width="55.2437" height="55.2437" filterUnits="userSpaceOnUse" color-interpolation-filters="sRGB">
<feFlood flood-opacity="0" result="BackgroundImageFix"/>
<feColorMatrix in="SourceAlpha" type="matrix" values="0 0 0 0 0 0 0 0 0 0 0 0 0 0 0 0 0 0 127 0" result="hardAlpha"/>
<feOffset dx="6" dy="6"/>
<feComposite in2="hardAlpha" operator="out"/>
<feColorMatrix type="matrix" values="0 0 0 0 0.0980392 0 0 0 0 0.0980392 0 0 0 0 0.0980392 0 0 0 1 0"/>
<feBlend mode="normal" in2="BackgroundImageFix" result="effect1_dropShadow_101_73"/>
<feBlend mode="normal" in="SourceGraphic" in2="effect1_dropShadow_101_73" result="shape"/>
</filter>
<filter id="filter7_d_101_73" x="452.401" y="82.2545" width="53.1452" height="53.1452" filterUnits="userSpaceOnUse" color-interpolation-filters="sRGB">
<feFlood flood-opacity="0" result="BackgroundImageFix"/>
<feColorMatrix in="SourceAlpha" type="matrix" values="0 0 0 0 0 0 0 0 0 0 0 0 0 0 0 0 0 0 127 0" result="hardAlpha"/>
<feOffset dx="6" dy="6"/>
<feComposite in2="hardAlpha" operator="out"/>
<feColorMatrix type="matrix" values="0 0 0 0 0.0980392 0 0 0 0 0.0980392 0 0 0 0 0.0980392 0 0 0 1 0"/>
<feBlend mode="normal" in2="BackgroundImageFix" result="effect1_dropShadow_101_73"/>
<feBlend mode="normal" in="SourceGraphic" in2="effect1_dropShadow_101_73" result="shape"/>
</filter>
<filter id="filter8_d_101_73" x="372.538" y="23.4593" width="51.0471" height="51.0471" filterUnits="userSpaceOnUse" color-interpolation-filters="sRGB">
<feFlood flood-opacity="0" result="BackgroundImageFix"/>
<feColorMatrix in="SourceAlpha" type="matrix" values="0 0 0 0 0 0 0 0 0 0 0 0 0 0 0 0 0 0 127 0" result="hardAlpha"/>
<feOffset dx="6" dy="6"/>
<feComposite in2="hardAlpha" operator="out"/>
<feColorMatrix type="matrix" values="0 0 0 0 0.0980392 0 0 0 0 0.0980392 0 0 0 0 0.0980392 0 0 0 1 0"/>
<feBlend mode="normal" in2="BackgroundImageFix" result="effect1_dropShadow_101_73"/>
<feBlend mode="normal" in="SourceGraphic" in2="effect1_dropShadow_101_73" result="shape"/>
</filter>
<filter id="filter9_d_101_73" x="279.959" y="0" width="49.0324" height="49.0327" filterUnits="userSpaceOnUse" color-interpolation-filters="sRGB">
<feFlood flood-opacity="0" result="BackgroundImageFix"/>
<feColorMatrix in="SourceAlpha" type="matrix" values="0 0 0 0 0 0 0 0 0 0 0 0 0 0 0 0 0 0 127 0" result="hardAlpha"/>
<feOffset dx="6" dy="6"/>
<feComposite in2="hardAlpha" operator="out"/>
<feColorMatrix type="matrix" values="0 0 0 0 0.0980392 0 0 0 0 0.0980392 0 0 0 0 0.0980392 0 0 0 1 0"/>
<feBlend mode="normal" in2="BackgroundImageFix" result="effect1_dropShadow_101_73"/>
<feBlend mode="normal" in="SourceGraphic" in2="effect1_dropShadow_101_73" result="shape"/>
</filter>
<filter id="filter10_d_101_73" x="185.367" y="12.0444" width="46.9343" height="46.9343" filterUnits="userSpaceOnUse" color-interpolation-filters="sRGB">
<feFlood flood-opacity="0" result="BackgroundImageFix"/>
<feColorMatrix in="SourceAlpha" type="matrix" values="0 0 0 0 0 0 0 0 0 0 0 0 0 0 0 0 0 0 127 0" result="hardAlpha"/>
<feOffset dx="6" dy="6"/>
<feComposite in2="hardAlpha" operator="out"/>
<feColorMatrix type="matrix" values="0 0 0 0 0.0980392 0 0 0 0 0.0980392 0 0 0 0 0.0980392 0 0 0 1 0"/>
<feBlend mode="normal" in2="BackgroundImageFix" result="effect1_dropShadow_101_73"/>
<feBlend mode="normal" in="SourceGraphic" in2="effect1_dropShadow_101_73" result="shape"/>
</filter>
<filter id="filter11_d_101_73" x="99.3777" y="59.5504" width="44.9196" height="44.9199" filterUnits="userSpaceOnUse" color-interpolation-filters="sRGB">
<feFlood flood-opacity="0" result="BackgroundImageFix"/>
<feColorMatrix in="SourceAlpha" type="matrix" values="0 0 0 0 0 0 0 0 0 0 0 0 0 0 0 0 0 0 127 0" result="hardAlpha"/>
<feOffset dx="6" dy="6"/>
<feComposite in2="hardAlpha" operator="out"/>
<feColorMatrix type="matrix" values="0 0 0 0 0.0980392 0 0 0 0 0.0980392 0 0 0 0 0.0980392 0 0 0 1 0"/>
<feBlend mode="normal" in2="BackgroundImageFix" result="effect1_dropShadow_101_73"/>
<feBlend mode="normal" in="SourceGraphic" in2="effect1_dropShadow_101_73" result="shape"/>
</filter>
<filter id="filter12_d_101_73" x="34.5385" y="137.818" width="42.8216" height="42.8215" filterUnits="userSpaceOnUse" color-interpolation-filters="sRGB">
<feFlood flood-opacity="0" result="BackgroundImageFix"/>
<feColorMatrix in="SourceAlpha" type="matrix" values="0 0 0 0 0 0 0 0 0 0 0 0 0 0 0 0 0 0 127 0" result="hardAlpha"/>
<feOffset dx="6" dy="6"/>
<feComposite in2="hardAlpha" operator="out"/>
<feColorMatrix type="matrix" values="0 0 0 0 0.0980392 0 0 0 0 0.0980392 0 0 0 0 0.0980392 0 0 0 1 0"/>
<feBlend mode="normal" in2="BackgroundImageFix" result="effect1_dropShadow_101_73"/>
<feBlend mode="normal" in="SourceGraphic" in2="effect1_dropShadow_101_73" result="shape"/>
</filter>
<filter id="filter13_d_101_73" x="1.30125" y="230.145" width="40.7232" height="40.7232" filterUnits="userSpaceOnUse" color-interpolation-filters="sRGB">
<feFlood flood-opacity="0" result="BackgroundImageFix"/>
<feColorMatrix in="SourceAlpha" type="matrix" values="0 0 0 0 0 0 0 0 0 0 0 0 0 0 0 0 0 0 127 0" result="hardAlpha"/>
<feOffset dx="6" dy="6"/>
<feComposite in2="hardAlpha" operator="out"/>
<feColorMatrix type="matrix" values="0 0 0 0 0.0980392 0 0 0 0 0.0980392 0 0 0 0 0.0980392 0 0 0 1 0"/>
<feBlend mode="normal" in2="BackgroundImageFix" result="effect1_dropShadow_101_73"/>
<feBlend mode="normal" in="SourceGraphic" in2="effect1_dropShadow_101_73" result="shape"/>
</filter>
<filter id="filter14_d_101_73" x="0" y="327.34" width="38.7089" height="38.7088" filterUnits="userSpaceOnUse" color-interpolation-filters="sRGB">
<feFlood flood-opacity="0" result="BackgroundImageFix"/>
<feColorMatrix in="SourceAlpha" type="matrix" values="0 0 0 0 0 0 0 0 0 0 0 0 0 0 0 0 0 0 127 0" result="hardAlpha"/>
<feOffset dx="6" dy="6"/>
<feComposite in2="hardAlpha" operator="out"/>
<feColorMatrix type="matrix" values="0 0 0 0 0.0980392 0 0 0 0 0.0980392 0 0 0 0 0.0980392 0 0 0 1 0"/>
<feBlend mode="normal" in2="BackgroundImageFix" result="effect1_dropShadow_101_73"/>
<feBlend mode="normal" in="SourceGraphic" in2="effect1_dropShadow_101_73" result="shape"/>
</filter>
<filter id="filter15_d_101_73" x="30.6779" y="420.926" width="36.6105" height="36.6104" filterUnits="userSpaceOnUse" color-interpolation-filters="sRGB">
<feFlood flood-opacity="0" result="BackgroundImageFix"/>
<feColorMatrix in="SourceAlpha" type="matrix" values="0 0 0 0 0 0 0 0 0 0 0 0 0 0 0 0 0 0 127 0" result="hardAlpha"/>
<feOffset dx="6" dy="6"/>
<feComposite in2="hardAlpha" operator="out"/>
<feColorMatrix type="matrix" values="0 0 0 0 0.0980392 0 0 0 0 0.0980392 0 0 0 0 0.0980392 0 0 0 1 0"/>
<feBlend mode="normal" in2="BackgroundImageFix" result="effect1_dropShadow_101_73"/>
<feBlend mode="normal" in="SourceGraphic" in2="effect1_dropShadow_101_73" result="shape"/>
</filter>
<filter id="filter16_d_101_73" x="93.1658" y="502.131" width="34.5122" height="34.5121" filterUnits="userSpaceOnUse" color-interpolation-filters="sRGB">
<feFlood flood-opacity="0" result="BackgroundImageFix"/>
<feColorMatrix in="SourceAlpha" type="matrix" values="0 0 0 0 0 0 0 0 0 0 0 0 0 0 0 0 0 0 127 0" result="hardAlpha"/>
<feOffset dx="6" dy="6"/>
<feComposite in2="hardAlpha" operator="out"/>
<feColorMatrix type="matrix" values="0 0 0 0 0.0980392 0 0 0 0 0.0980392 0 0 0 0 0.0980392 0 0 0 1 0"/>
<feBlend mode="normal" in2="BackgroundImageFix" result="effect1_dropShadow_101_73"/>
<feBlend mode="normal" in="SourceGraphic" in2="effect1_dropShadow_101_73" result="shape"/>
</filter>
<filter id="filter17_d_101_73" x="177.351" y="558.996" width="32.4977" height="32.4977" filterUnits="userSpaceOnUse" color-interpolation-filters="sRGB">
<feFlood flood-opacity="0" result="BackgroundImageFix"/>
<feColorMatrix in="SourceAlpha" type="matrix" values="0 0 0 0 0 0 0 0 0 0 0 0 0 0 0 0 0 0 127 0" result="hardAlpha"/>
<feOffset dx="6" dy="6"/>
<feComposite in2="hardAlpha" operator="out"/>
<feColorMatrix type="matrix" values="0 0 0 0 0.0980392 0 0 0 0 0.0980392 0 0 0 0 0.0980392 0 0 0 1 0"/>
<feBlend mode="normal" in2="BackgroundImageFix" result="effect1_dropShadow_101_73"/>
<feBlend mode="normal" in="SourceGraphic" in2="effect1_dropShadow_101_73" result="shape"/>
</filter>
<filter id="filter18_d_101_73" x="271.608" y="587.072" width="30.3993" height="30.3994" filterUnits="userSpaceOnUse" color-interpolation-filters="sRGB">
<feFlood flood-opacity="0" result="BackgroundImageFix"/>
<feColorMatrix in="SourceAlpha" type="matrix" values="0 0 0 0 0 0 0 0 0 0 0 0 0 0 0 0 0 0 127 0" result="hardAlpha"/>
<feOffset dx="6" dy="6"/>
<feComposite in2="hardAlpha" operator="out"/>
<feColorMatrix type="matrix" values="0 0 0 0 0.0980392 0 0 0 0 0.0980392 0 0 0 0 0.0980392 0 0 0 1 0"/>
<feBlend mode="normal" in2="BackgroundImageFix" result="effect1_dropShadow_101_73"/>
<feBlend mode="normal" in="SourceGraphic" in2="effect1_dropShadow_101_73" result="shape"/>
</filter>
<filter id="filter19_d_101_73" x="368.93" y="586.4" width="28.3009" height="28.301" filterUnits="userSpaceOnUse" color-interpolation-filters="sRGB">
<feFlood flood-opacity="0" result="BackgroundImageFix"/>
<feColorMatrix in="SourceAlpha" type="matrix" values="0 0 0 0 0 0 0 0 0 0 0 0 0 0 0 0 0 0 127 0" result="hardAlpha"/>
<feOffset dx="6" dy="6"/>
<feComposite in2="hardAlpha" operator="out"/>
<feColorMatrix type="matrix" values="0 0 0 0 0.0980392 0 0 0 0 0.0980392 0 0 0 0 0.0980392 0 0 0 1 0"/>
<feBlend mode="normal" in2="BackgroundImageFix" result="effect1_dropShadow_101_73"/>
<feBlend mode="normal" in="SourceGraphic" in2="effect1_dropShadow_101_73" result="shape"/>
</filter>
<filter id="filter20_d_101_73" x="462.306" y="556.855" width="26.2868" height="26.2866" filterUnits="userSpaceOnUse" color-interpolation-filters="sRGB">
<feFlood flood-opacity="0" result="BackgroundImageFix"/>
<feColorMatrix in="SourceAlpha" type="matrix" values="0 0 0 0 0 0 0 0 0 0 0 0 0 0 0 0 0 0 127 0" result="hardAlpha"/>
<feOffset dx="6" dy="6"/>
<feComposite in2="hardAlpha" operator="out"/>
<feColorMatrix type="matrix" values="0 0 0 0 0.0980392 0 0 0 0 0.0980392 0 0 0 0 0.0980392 0 0 0 1 0"/>
<feBlend mode="normal" in2="BackgroundImageFix" result="effect1_dropShadow_101_73"/>
<feBlend mode="normal" in="SourceGraphic" in2="effect1_dropShadow_101_73" result="shape"/>
</filter>
<filter id="filter21_d_101_73" x="544.812" y="498.606" width="24.1883" height="24.1883" filterUnits="userSpaceOnUse" color-interpolation-filters="sRGB">
<feFlood flood-opacity="0" result="BackgroundImageFix"/>
<feColorMatrix in="SourceAlpha" type="matrix" values="0 0 0 0 0 0 0 0 0 0 0 0 0 0 0 0 0 0 127 0" result="hardAlpha"/>
<feOffset dx="6" dy="6"/>
<feComposite in2="hardAlpha" operator="out"/>
<feColorMatrix type="matrix" values="0 0 0 0 0.0980392 0 0 0 0 0.0980392 0 0 0 0 0.0980392 0 0 0 1 0"/>
<feBlend mode="normal" in2="BackgroundImageFix" result="effect1_dropShadow_101_73"/>
<feBlend mode="normal" in="SourceGraphic" in2="effect1_dropShadow_101_73" result="shape"/>
</filter>
</defs>
</svg>
