<svg width="106" height="78" viewBox="0 0 106 78" fill="none" xmlns="http://www.w3.org/2000/svg">
<rect x="29" y="1" width="76" height="76" rx="13" fill="#FFDECC"/>
<rect x="29" y="1" width="76" height="76" rx="13" stroke="#262626" stroke-width="2"/>
<path fill-rule="evenodd" clip-rule="evenodd" d="M62.75 28.375C63.2244 28.375 63.6413 28.6895 63.7716 29.1456L64.9236 33.1777C65.4279 34.9426 66.8074 36.3221 68.5723 36.8264L72.6044 37.9784C73.0605 38.1087 73.375 38.5256 73.375 39C73.375 39.4744 73.0605 39.8913 72.6044 40.0216L68.5723 41.1736C66.8074 41.6779 65.4279 43.0574 64.9236 44.8223L63.7716 48.8544C63.6413 49.3105 63.2244 49.625 62.75 49.625C62.2756 49.625 61.8587 49.3105 61.7284 48.8544L60.5764 44.8223C60.0721 43.0574 58.6926 41.6779 56.9277 41.1736L52.8956 40.0216C52.4395 39.8913 52.125 39.4744 52.125 39C52.125 38.5256 52.4395 38.1087 52.8956 37.9784L56.9277 36.8264C58.6926 36.3221 60.0721 34.9426 60.5764 33.1777L61.7284 29.1456C61.8587 28.6895 62.2756 28.375 62.75 28.375Z" fill="#262626"/>
<path fill-rule="evenodd" clip-rule="evenodd" d="M75.5 24.125C75.9875 24.125 76.4125 24.4568 76.5308 24.9298L76.8975 26.3967C77.2306 27.7291 78.2709 28.7694 79.6033 29.1025L81.0702 29.4692C81.5432 29.5875 81.875 30.0125 81.875 30.5C81.875 30.9875 81.5432 31.4125 81.0702 31.5308L79.6033 31.8975C78.2709 32.2306 77.2306 33.2709 76.8975 34.6033L76.5308 36.0702C76.4125 36.5432 75.9875 36.875 75.5 36.875C75.0125 36.875 74.5875 36.5432 74.4692 36.0702L74.1025 34.6033C73.7694 33.2709 72.7291 32.2306 71.3967 31.8975L69.9298 31.5308C69.4568 31.4125 69.125 30.9875 69.125 30.5C69.125 30.0125 69.4568 29.5875 69.9298 29.4692L71.3967 29.1025C72.7291 28.7694 73.7694 27.7291 74.1025 26.3967L74.4692 24.9298C74.5875 24.4568 75.0125 24.125 75.5 24.125Z" fill="#262626"/>
<path fill-rule="evenodd" clip-rule="evenodd" d="M73.375 43.25C73.8323 43.25 74.2384 43.5426 74.383 43.9765L74.9415 45.652C75.153 46.2866 75.6509 46.7845 76.2855 46.996L77.961 47.5545C78.3949 47.6991 78.6875 48.1052 78.6875 48.5625C78.6875 49.0198 78.3949 49.4259 77.961 49.5705L76.2855 50.129C75.6509 50.3405 75.153 50.8384 74.9415 51.473L74.383 53.1485C74.2384 53.5824 73.8323 53.875 73.375 53.875C72.9177 53.875 72.5116 53.5824 72.367 53.1485L71.8085 51.473C71.597 50.8384 71.0991 50.3405 70.4645 50.129L68.789 49.5705C68.3551 49.4259 68.0625 49.0198 68.0625 48.5625C68.0625 48.1052 68.3551 47.6991 68.789 47.5545L70.4645 46.996C71.0991 46.7845 71.597 46.2866 71.8085 45.652L72.367 43.9765C72.5116 43.5426 72.9177 43.25 73.375 43.25Z" fill="#262626"/>
</svg>
