<svg width="106" height="78" viewBox="0 0 106 78" fill="none" xmlns="http://www.w3.org/2000/svg">
<rect x="29" y="1" width="76" height="76" rx="13" fill="#FFDECC"/>
<rect x="29" y="1" width="76" height="76" rx="13" stroke="#262626" stroke-width="2"/>
<path fill-rule="evenodd" clip-rule="evenodd" d="M61.6875 31.5625C61.6875 28.6285 64.066 26.25 67 26.25C69.934 26.25 72.3125 28.6285 72.3125 31.5625C72.3125 34.4965 69.934 36.875 67 36.875C64.066 36.875 61.6875 34.4965 61.6875 31.5625Z" fill="#262626"/>
<path fill-rule="evenodd" clip-rule="evenodd" d="M72.3125 35.8125C72.3125 33.4653 74.2153 31.5625 76.5625 31.5625C78.9097 31.5625 80.8125 33.4653 80.8125 35.8125C80.8125 38.1597 78.9097 40.0625 76.5625 40.0625C74.2153 40.0625 72.3125 38.1597 72.3125 35.8125Z" fill="#262626"/>
<path fill-rule="evenodd" clip-rule="evenodd" d="M53.1875 35.8125C53.1875 33.4653 55.0903 31.5625 57.4375 31.5625C59.7847 31.5625 61.6875 33.4653 61.6875 35.8125C61.6875 38.1597 59.7847 40.0625 57.4375 40.0625C55.0903 40.0625 53.1875 38.1597 53.1875 35.8125Z" fill="#262626"/>
<path fill-rule="evenodd" clip-rule="evenodd" d="M58.939 43.4165C60.6361 40.7629 63.6118 39 67 39C70.3886 39 73.3646 40.7633 75.0617 43.4175C76.2349 45.2524 76.7425 47.4649 76.5044 49.6221C76.4672 49.9592 76.2712 50.2583 75.9771 50.4271C73.3317 51.945 70.2655 52.8125 67 52.8125C63.7345 52.8125 60.6683 51.945 58.0229 50.4271C57.7288 50.2583 57.5328 49.9592 57.4956 49.6221C57.2575 47.4645 57.7653 45.2516 58.939 43.4165Z" fill="#262626"/>
<path d="M57.1999 42.1927C57.1828 42.2189 57.1659 42.2452 57.149 42.2716C55.7813 44.4101 55.1554 46.957 55.3475 49.4678C54.4861 49.3369 53.6503 49.1265 52.8481 48.8439L52.6852 48.7866C52.3882 48.682 52.1806 48.4122 52.1556 48.0982L52.1419 47.9261C52.1307 47.7853 52.125 47.6432 52.125 47.5C52.125 44.6456 54.3761 42.317 57.1999 42.1927Z" fill="#262626"/>
<path d="M78.653 49.4677C78.8451 46.9574 78.2195 44.4111 76.8522 42.2728C76.8351 42.246 76.8179 42.2193 76.8006 42.1927C79.6241 42.3173 81.875 44.6458 81.875 47.5C81.875 47.6432 81.8693 47.7853 81.8581 47.9261L81.8444 48.0982C81.8194 48.4122 81.6118 48.682 81.3148 48.7866L81.1519 48.8439C80.3498 49.1264 79.5142 49.3368 78.653 49.4677Z" fill="#262626"/>
</svg>
