<svg width="88" height="88" viewBox="0 0 88 88" fill="none" xmlns="http://www.w3.org/2000/svg">
<g clip-path="url(#clip0_154_29557)">
<path d="M58.6699 14.665L73.3349 0H87.9999V14.665L73.3349 29.33H58.6699V14.665Z" fill="#FFDECC"/>
<path d="M87.9997 0H73.3347V14.665H87.9997V0Z" fill="#FF8D4D"/>
<path d="M58.6699 44.005L73.3349 29.3299H87.9999V44.005L73.3349 58.67H58.6699V44.005Z" fill="#FFDECC"/>
<path d="M87.9997 29.3299H73.3347V43.9949H87.9997V29.3299Z" fill="#FF8D4D"/>
<path d="M29.3296 14.665L44.0046 0H58.6696V14.665L44.0046 29.33H29.3296V14.665Z" fill="#FFDECC"/>
<path d="M58.6692 0H44.0042V14.665H58.6692V0Z" fill="#FF8D4D"/>
<path d="M29.3296 44.005L44.0046 29.3299H58.6696V44.005L44.0046 58.67H29.3296V44.005Z" fill="#FFDECC"/>
<path d="M58.6692 29.3299H44.0042V43.9949H58.6692V29.3299Z" fill="#FF8D4D"/>
<path d="M0 14.665L14.665 0H29.33V14.665L14.665 29.33H0V14.665Z" fill="#FFDECC"/>
<path d="M29.3298 0H14.6648V14.665H29.3298V0Z" fill="#FF8D4D"/>
<path d="M0 44.005L14.665 29.3299H29.33V44.005L14.665 58.67H0V44.005Z" fill="#FFDECC"/>
<path d="M29.3298 29.3299H14.6648V43.9949H29.3298V29.3299Z" fill="#FF8D4D"/>
<path d="M58.6699 73.335L73.3349 58.67H87.9999V73.335L73.3349 88H58.6699V73.335Z" fill="#FFDECC"/>
<path d="M87.9997 58.67H73.3347V73.335H87.9997V58.67Z" fill="#FF8D4D"/>
<path d="M29.3296 73.335L44.0046 58.67H58.6696V73.335L44.0046 88H29.3296V73.335Z" fill="#FFDECC"/>
<path d="M58.6692 58.67H44.0042V73.335H58.6692V58.67Z" fill="#FF8D4D"/>
<path d="M0 73.335L14.665 58.67H29.33V73.335L14.665 88H0V73.335Z" fill="#FFDECC"/>
<path d="M29.3298 58.67H14.6648V73.335H29.3298V58.67Z" fill="#FF8D4D"/>
</g>
<defs>
<clipPath id="clip0_154_29557">
<rect width="87.31" height="87.31" fill="white" transform="scale(1.0079)"/>
</clipPath>
</defs>
</svg>
