<svg width="106" height="78" viewBox="0 0 106 78" fill="none" xmlns="http://www.w3.org/2000/svg">
<rect x="29" y="1" width="76" height="76" rx="13" fill="#FFDECC"/>
<rect x="29" y="1" width="76" height="76" rx="13" stroke="#262626" stroke-width="2"/>
<path d="M67 25.1875C67.5868 25.1875 68.0625 25.6632 68.0625 26.25V29.4375C68.0625 30.0243 67.5868 30.5 67 30.5C66.4132 30.5 65.9375 30.0243 65.9375 29.4375V26.25C65.9375 25.6632 66.4132 25.1875 67 25.1875Z" fill="#262626"/>
<path d="M60.625 39C60.625 35.4792 63.4792 32.625 67 32.625C70.5208 32.625 73.375 35.4792 73.375 39C73.375 42.5208 70.5208 45.375 67 45.375C63.4792 45.375 60.625 42.5208 60.625 39Z" fill="#262626"/>
<path d="M76.767 30.7356C77.1819 30.3207 77.1819 29.648 76.767 29.233C76.3521 28.8181 75.6793 28.8181 75.2644 29.233L73.0105 31.4869C72.5955 31.9019 72.5955 32.5746 73.0105 32.9895C73.4254 33.4045 74.0982 33.4045 74.5131 32.9895L76.767 30.7356Z" fill="#262626"/>
<path d="M80.8125 39C80.8125 39.5868 80.3368 40.0625 79.75 40.0625H76.5625C75.9757 40.0625 75.5 39.5868 75.5 39C75.5 38.4132 75.9757 37.9375 76.5625 37.9375H79.75C80.3368 37.9375 80.8125 38.4132 80.8125 39Z" fill="#262626"/>
<path d="M75.2642 48.7669C75.6792 49.1818 76.3519 49.1818 76.7668 48.7669C77.1818 48.3519 77.1818 47.6792 76.7668 47.2643L74.5129 45.0104C74.098 44.5954 73.4253 44.5954 73.0103 45.0104C72.5954 45.4253 72.5954 46.098 73.0103 46.513L75.2642 48.7669Z" fill="#262626"/>
<path d="M67 47.5C67.5868 47.5 68.0625 47.9757 68.0625 48.5625V51.75C68.0625 52.3368 67.5868 52.8125 67 52.8125C66.4132 52.8125 65.9375 52.3368 65.9375 51.75V48.5625C65.9375 47.9757 66.4132 47.5 67 47.5Z" fill="#262626"/>
<path d="M60.9898 46.513C61.4047 46.098 61.4047 45.4253 60.9898 45.0104C60.5749 44.5954 59.9021 44.5954 59.4872 45.0104L57.2333 47.2643C56.8184 47.6792 56.8184 48.3519 57.2333 48.7669C57.6482 49.1818 58.321 49.1818 58.7359 48.7669L60.9898 46.513Z" fill="#262626"/>
<path d="M58.5 39C58.5 39.5868 58.0243 40.0625 57.4375 40.0625H54.25C53.6632 40.0625 53.1875 39.5868 53.1875 39C53.1875 38.4132 53.6632 37.9375 54.25 37.9375H57.4375C58.0243 37.9375 58.5 38.4132 58.5 39Z" fill="#262626"/>
<path d="M59.487 32.9895C59.902 33.4045 60.5747 33.4045 60.9896 32.9895C61.4046 32.5746 61.4046 31.9019 60.9896 31.4869L58.7357 29.233C58.3208 28.8181 57.6481 28.8181 57.2331 29.233C56.8182 29.648 56.8182 30.3207 57.2331 30.7356L59.487 32.9895Z" fill="#262626"/>
</svg>
