<svg width="106" height="78" viewBox="0 0 106 78" fill="none" xmlns="http://www.w3.org/2000/svg">
<rect x="29" y="1" width="76" height="76" rx="13" fill="#FFDECC"/>
<rect x="29" y="1" width="76" height="76" rx="13" stroke="#262626" stroke-width="2"/>
<path d="M67.0056 47.4669C73.6009 47.4669 78.2944 44.9118 78.2944 41.1624V35.6321C78.2944 32.3139 74.3016 30.5 67.0056 30.5C59.6984 30.5 55.7056 32.3139 55.7056 35.6321V41.1624C55.7056 44.9118 60.3991 47.4669 67.0056 47.4669ZM60.9774 36.6054C60.9774 36.1077 61.3889 35.6874 61.9006 35.6874H72.1106C72.6334 35.6874 73.0448 36.1077 73.0448 36.6054C73.0448 37.1142 72.6334 37.5345 72.1106 37.5345H61.9006C61.3889 37.5345 60.9774 37.1142 60.9774 36.6054ZM60.9774 40.8748C60.9774 40.366 61.3889 39.9457 61.9006 39.9457H72.1106C72.6334 39.9457 73.0448 40.366 73.0448 40.8748C73.0448 41.3835 72.6334 41.7927 72.1106 41.7927H61.9006C61.3889 41.7927 60.9774 41.3835 60.9774 40.8748ZM50 37.7668C50 41.3283 52.6026 43.8169 56.5064 43.8169H57.2293V42.0362H56.3284C53.6258 42.0362 51.7906 40.2443 51.7906 37.7668C51.7906 36.539 52.4468 35.7869 53.6369 35.7869H56.7733V34.0062H53.6369C51.3346 34.0062 50 35.4219 50 37.7668ZM84 37.7668C84 35.4219 82.6765 34.0062 80.3631 34.0062H77.2267V35.7869H80.3631C81.5532 35.7869 82.2094 36.539 82.2094 37.7668C82.2094 40.2443 80.3742 42.0362 77.6715 42.0362H76.7707V43.8169H77.5048C81.3974 43.8169 84 41.3283 84 37.7668Z" fill="#262626"/>
</svg>
