<svg width="40" height="40" viewBox="0 0 40 40" fill="none" xmlns="http://www.w3.org/2000/svg">
<g opacity="0.9">
<path d="M24.044 0.735812C24.1377 0.745846 24.228 0.755883 24.3216 0.769262C24.2313 0.755883 24.1377 0.745846 24.044 0.735812Z" fill="#262626"/>
<path d="M29.8271 2.60234L29.3221 2.33142C29.3087 2.32473 29.292 2.31469 29.2786 2.308C29.2251 2.28124 29.1716 2.25448 29.1181 2.22772C29.1515 2.24444 29.1883 2.26118 29.2251 2.2779C29.1448 2.23442 29.0645 2.19428 28.9843 2.1508L28.6297 1.99025C28.6598 2.00362 28.6933 2.02035 28.7234 2.03373C28.2886 1.83304 27.8471 1.65243 27.3922 1.49188C25.4489 1.03365 23.4454 0.842993 19.9969 0.786132C26.3887 1.10054 28.5829 2.01366 29.3187 2.32807C29.4893 2.41503 29.6599 2.50534 29.8271 2.60234Z" fill="#262626"/>
<path d="M24.7398 0.582015C24.4889 0.52181 24.2381 0.461604 24.024 0.414778L23.8902 0.388014C23.1544 0.270948 21.6927 0.501743 19.9969 0.792736C20.1441 0.772668 20.2879 0.755943 20.4351 0.739219C23.2413 0.418123 24.0541 0.471642 24.7398 0.585363V0.582015Z" fill="#262626"/>
<path d="M22.6694 0.18056C22.4486 0.150457 22.1744 0.120354 21.9603 0.0969407C21.9603 0.0969407 21.9536 0.0969407 21.9503 0.0969407C21.9101 0.106975 21.9034 0.110322 19.9969 0.789307C22.2111 0.200631 22.4286 0.197283 22.7262 0.190593C22.7095 0.190593 22.6894 0.187252 22.6694 0.183908V0.18056Z" fill="#262626"/>
<path d="M13.2172 38.8292C13.264 38.8459 13.3142 38.8626 13.3644 38.8827C13.7189 39.0031 14.1604 39.1402 14.4983 39.2439C14.8495 39.3443 15.3211 39.4546 15.6756 39.5383C11.0632 38.4111 7.12642 35.8858 3.97901 32.0259L4.86537 33.1197C4.97574 33.2434 5.07274 33.3538 5.1664 33.4542C5.49418 33.7953 5.88217 34.19 6.27685 34.5713C6.52102 34.7954 6.82539 35.063 7.24683 35.4376C7.46424 35.6115 7.71844 35.8055 7.97933 35.9995C10.217 37.6485 11.7455 38.2572 13.2206 38.8325L13.2172 38.8292Z" fill="#262626"/>
<path d="M21.0005 0.0535071C20.9703 0.0434728 20.9336 0.030102 20.9035 0.0200677C20.9035 0.0200677 20.9001 0.0200677 20.8968 0.0200677C20.6894 0.0100334 20.5623 0.00668583 20.5489 0.00668583C20.4318 0.00668583 20.2847 0 20.1609 0C20.3951 0.0100343 20.4017 0.0167209 20.5088 0.153856C20.4642 0.314404 20.2947 0.526236 20.0004 0.789357C20.9402 0.267575 20.9703 0.167229 21.0038 0.0535071H21.0005Z" fill="#262626"/>
<path d="M1.34659 27.3233C5.01244 35.9796 14.1938 39.2942 17.4382 39.8394C17.4549 39.8394 17.4683 39.8428 17.485 39.8461C17.6556 39.8662 17.8697 39.8896 18.0369 39.9063L18.3781 39.9364C18.3781 39.9364 18.3915 39.9364 18.3948 39.9364C16.4816 39.7591 3.32334 35.8759 0.359889 23.9318C0.393337 24.109 0.42344 24.283 0.456887 24.4435C0.677641 25.2764 1.01546 26.3668 1.29977 27.1963C1.31649 27.2397 1.33321 27.2799 1.34659 27.3233Z" fill="#262626"/>
<path d="M19.4383 0.153768C19.8932 0.324351 19.9166 0.424691 19.9969 0.789269C20.328 0.0433893 19.639 0.0300144 19.0303 0.0199801C18.8162 0.0300144 18.5319 0.0500776 18.3212 0.0668014L18.1205 0.0835313C18.4316 0.0634628 19.0805 0.0199781 19.4383 0.153768Z" fill="#262626"/>
<path d="M19.5453 39.9967C19.6223 39.9967 19.6959 40 19.7728 40H19.8062C19.8062 40 19.833 40 19.843 40C19.93 40 20.0136 40 20.1006 40C20.1742 40 20.2477 40 20.3113 40C20.3146 40 20.318 40 20.3213 40C18.8028 39.9733 -2.92471 31.7385 0.587278 15.008C0.587278 15.008 0.587278 15.008 0.587278 15.0114C0.466867 15.483 0.3498 16.1185 0.249458 16.5935C0.15246 17.2022 0.0721859 18.0217 0.00529083 18.6338C-0.352598 33.6417 17.5586 39.806 19.5453 39.9967Z" fill="#262626"/>
<path d="M16.2709 0.347903C16.2308 0.354592 16.1873 0.364629 16.1472 0.371318C18.5922 -0.046776 19.6123 0.55528 20.0003 0.789412C19.308 0.0268086 18.1038 0.0401852 16.2743 0.347903H16.2709Z" fill="#262626"/>
<path d="M2.54082 10.1713C-6.28598 27.1895 18.4384 39.2038 21.3952 39.9497C21.4153 39.9497 21.4353 39.9497 21.4554 39.9463L21.5858 39.9363C21.6059 39.9363 21.626 39.933 21.6494 39.9296C21.7999 39.9162 21.9805 39.8962 22.1344 39.8828C22.1545 39.8828 22.1745 39.8795 22.1913 39.8761C18.6893 37.2137 14.4281 35.7621 11.0532 32.8989C9.40091 31.4975 5.53103 28.2163 3.26998 23.828C-1.25547 15.048 2.77161 9.44888 4.74836 7.04066C4.67812 7.12093 4.61122 7.2012 4.54433 7.27813L4.20985 7.67616C3.68807 8.39528 3.02916 9.38198 2.55755 10.1412C2.55086 10.1513 2.54751 10.1613 2.54082 10.1713Z" fill="#262626"/>
<path d="M15.3679 0.538424C15.3679 0.538424 15.3913 0.531735 15.4047 0.528391C15.3746 0.53508 15.3378 0.541769 15.311 0.548458C15.0902 0.59863 14.8026 0.675558 14.5852 0.735764C14.137 0.859519 13.545 1.04348 13.1102 1.20738C12.8426 1.30772 12.488 1.44151 12.2271 1.55188C11.9127 1.68567 11.5013 1.87967 11.1903 2.0235C10.8725 2.17066 10.4611 2.38807 10.1601 2.56534C9.80554 2.77272 9.36738 3.04364 8.97938 3.2945C4.9824 6.04389 1.8283 10.4556 2.26312 15.4293C3.2933 27.1627 16.582 35.2101 21.5824 38.2405C22.7375 38.9407 23.3484 39.4268 23.4153 39.6988C23.4153 39.6988 23.4388 39.6955 23.4488 39.6921C23.7231 39.6419 24.0676 39.5683 24.3418 39.5115C24.3519 39.5115 24.3619 39.5081 24.3719 39.5048C24.4689 39.4714 24.5392 39.3309 24.6061 39.2506C24.3786 38.8124 23.9338 38.498 21.5289 36.9227C15.3411 32.8688 9.11317 28.2062 5.47743 21.6003C-2.72725 6.68608 13.1837 -1.03027 20.0003 0.785933C18.6792 0.274186 17.0703 0.217325 15.3712 0.535076L15.3679 0.538424Z" fill="#262626"/>
<path d="M22.2847 35.257C26.0509 37.9194 26.9472 38.5516 25.7565 39.1403C25.7699 39.1369 25.7833 39.1336 25.7933 39.1302C25.9773 39.0734 26.1846 39.0031 26.3887 38.9362C26.5292 38.8894 26.6663 38.8392 26.8034 38.7891C28.4892 38.0064 27.0208 36.9227 23.5088 34.3372C19.6256 31.4774 14.7891 27.9186 10.6884 22.7142C-1.4196 7.34838 11.5045 -0.257589 19.9935 0.789319C10.3472 -1.30115 -10.4103 12.1581 22.2813 35.257H22.2847Z" fill="#262626"/>
<path d="M24.499 32.2668C28.8906 35.6349 30.5362 36.8959 28.3555 38.1535C28.3722 38.1468 28.3889 38.1368 28.4056 38.1301C28.7702 37.9562 29.2251 37.7153 29.5763 37.5381C31.2754 36.5447 30.5964 35.3907 29.6097 34.2937C25.479 29.7013 19.9936 26.6576 15.7625 22.179C2.14597 7.76308 11.2805 0.591931 19.9969 0.792616C11.1133 -0.0168142 -4.74756 9.84351 24.499 32.2701V32.2668Z" fill="#262626"/>
<path d="M27.8939 29.4807C32.0782 32.8322 33.5699 34.635 31.3356 36.4478C31.7169 36.1803 32.2019 35.7989 32.5832 35.508C32.7739 35.3508 32.9746 35.1802 33.1652 35.0096C34.9011 33.4208 33.9278 32.5612 22.2479 22.2728C5.3168 7.36186 12.9462 2.09721 18.465 0.996787C13.4613 1.92997 -0.493042 6.73639 27.8939 29.4807Z" fill="#262626"/>
<path d="M19.7728 0.806112C19.3614 0.842905 18.9199 0.906458 18.4617 0.996766C19.0503 0.886389 19.5119 0.829526 19.7728 0.806112Z" fill="#262626"/>
<path d="M19.997 0.789339C19.997 0.789339 19.9034 0.796024 19.7729 0.806059C19.8465 0.799369 19.9235 0.792684 19.997 0.789339Z" fill="#262626"/>
<path d="M27.1145 22.9183C34.0549 28.5041 36.6604 31.0595 34.4027 33.8356C34.4194 33.8189 34.4328 33.8055 34.4462 33.7888C34.8007 33.4075 35.2289 32.9024 35.5633 32.5178C35.57 32.5077 35.5767 32.5011 35.5834 32.491C37.5602 29.9022 35.6704 27.1762 27.5226 20.8446C6.2633 4.32819 17.5251 1.24433 20.0002 0.792792C18.1974 1.02024 3.08244 3.57897 27.1178 22.9183H27.1145Z" fill="#262626"/>
<path d="M28.5495 18.4496C36.403 24.3163 38.5637 27.3166 37.0953 30.3168C37.1555 30.2165 37.2124 30.1195 37.2692 30.0225L37.3228 29.9288C37.3629 29.8586 37.3997 29.795 37.4365 29.7315L37.8847 28.8685C37.9382 28.7581 37.9917 28.6478 38.0452 28.5407C39.7979 24.5203 33.1552 19.6838 28.7468 16.4762C14.3811 6.02385 16.0602 2.18073 19.9969 0.795999C16.6355 1.67232 10.7353 5.15087 28.5495 18.4563V18.4496Z" fill="#262626"/>
<path d="M28.9306 13.8941C35.7874 18.7239 39.8947 21.9549 39.0418 25.9854C39.082 25.8482 39.1255 25.7111 39.1622 25.5773C39.2994 25.0756 39.4365 24.5103 39.5469 24.0588C40.1356 20.0417 35.9881 16.9779 29.1748 12.3187C24.6728 9.23819 16.2942 3.50528 19.9968 0.789339C14.1903 3.50862 25.2849 11.3253 28.9306 13.8941Z" fill="#262626"/>
<path d="M29.436 10.3421C37.1624 15.3558 39.788 17.6303 39.9285 21.0821C39.9318 21.0152 39.9385 20.9449 39.9418 20.878L39.9653 20.0352L39.9452 19.219C39.9418 19.1254 39.9385 19.0351 39.9318 18.9414C39.6341 15.3191 34.8076 12.3322 28.7035 8.55931C24.4088 5.90692 19.5422 2.89664 20.0004 0.792792C17.9902 2.92006 24.8804 7.38865 29.4393 10.3454L29.436 10.3421Z" fill="#262626"/>
<path d="M28.9341 7.14113C36.0517 11.1816 38.7309 13.145 39.5838 16.1051C39.4768 15.5933 39.3028 14.9444 39.159 14.3959C39.1256 14.2822 39.0921 14.1718 39.0587 14.0581C37.9014 11.0478 34.0248 8.88709 27.2918 5.34834C22.5322 2.84312 20.9636 1.86311 19.9969 0.792792C20.5521 2.3849 24.0675 4.38171 28.9341 7.14448V7.14113Z" fill="#262626"/>
<path d="M38.042 11.4457C38.0119 11.3855 37.9851 11.3253 37.955 11.2651L37.5503 10.4657L37.2794 9.98741C37.2292 9.90045 37.179 9.81348 37.1255 9.72652C36.209 8.30166 34.55 7.24137 32.1753 5.99712C28.2519 3.94344 24.0442 2.56206 20.0004 0.789339C21.2613 1.59208 23.5793 2.65572 26.5126 4.00365C34.2958 7.57919 36.694 9.12447 38.0453 11.4457H38.042Z" fill="#262626"/>
<path d="M35.6136 7.55578C35.5768 7.50895 35.5433 7.46881 35.5032 7.41864C35.4798 7.38854 35.4564 7.36178 35.4296 7.33168C35.3995 7.29488 35.3694 7.2581 35.3393 7.2213C35.045 6.88014 34.7138 6.50887 34.4496 6.21118C32.7103 4.42843 27.8471 2.60554 19.9969 0.789339C31.9042 4.35819 34.2088 6.03057 35.6136 7.55578Z" fill="#262626"/>
<path d="M32.3491 4.30802C32.0581 4.08392 31.7403 3.84978 31.4661 3.6491C31.4092 3.60896 31.3524 3.57218 31.2955 3.53204C29.4057 2.34131 25.6094 1.41815 19.9969 0.789339C23.4888 1.30778 29.7335 2.47844 32.5966 4.5087C32.513 4.43846 32.4294 4.37157 32.3491 4.30802Z" fill="#262626"/>
<path d="M24.4254 0.786041C24.8903 0.849592 25.3519 0.93321 25.8001 1.0369C26.5995 1.17069 26.6998 1.2008 27.3086 1.39814C27.2918 1.39145 27.2718 1.38141 27.255 1.37807C26.9507 1.25766 26.5359 1.11717 26.2248 1.0068H26.2182C25.4857 0.769319 24.6261 0.739222 23.6293 0.699085C23.6761 0.702429 23.7196 0.709111 23.7665 0.712456C23.2581 0.66563 22.7396 0.638871 22.2145 0.638871C21.4084 0.679008 21.3014 0.685705 19.9969 0.792737C22.0707 0.705774 23.0072 0.722494 24.4254 0.789389V0.786041ZM24.0407 0.73922C24.1344 0.749254 24.2247 0.759291 24.3183 0.77267C24.228 0.759291 24.1344 0.749254 24.0407 0.73922Z" fill="#262626"/>
</g>
</svg>
