<svg width="106" height="78" viewBox="0 0 106 78" fill="none" xmlns="http://www.w3.org/2000/svg">
<rect x="29" y="1" width="76" height="76" rx="13" fill="#FFDECC"/>
<rect x="29" y="1" width="76" height="76" rx="13" stroke="#262626" stroke-width="2"/>
<path d="M56.4824 45.5115L56.8517 46.9105C57.3194 48.7294 58.341 49.6621 60.3719 49.6621H73.6282C75.6715 49.6621 76.6807 48.7527 77.1607 46.9105L77.53 45.5115H56.4824ZM56.0762 43.9142H77.9485L80.2625 34.9368L79.2532 34.3888L73.579 38.3062C73.1605 38.5861 72.8774 38.4811 72.6435 38.1663L67.3016 30.518L66.7108 30.4947L61.3197 38.2013C61.1104 38.5044 60.8643 38.5977 60.4458 38.3179L54.8823 34.4704L53.7007 34.7619L56.0762 43.9142ZM54.1561 37.2685C55.7808 37.2685 57.0855 36.0211 57.0855 34.4704C57.0855 32.9548 55.7808 31.6956 54.1561 31.6956C52.5314 31.6956 51.2144 32.9431 51.2144 34.4704C51.2144 36.0211 52.5437 37.2685 54.1561 37.2685ZM67.0063 32.4185C68.6186 32.4185 69.9356 31.1709 69.9356 29.632C69.9356 28.1163 68.6186 26.8571 67.0063 26.8571C65.3692 26.8571 64.0645 28.1046 64.0645 29.632C64.0645 31.1709 65.3815 32.4185 67.0063 32.4185ZM79.844 37.2685C81.4565 37.2685 82.7858 36.0211 82.7858 34.4704C82.7858 32.9431 81.4688 31.6956 79.844 31.6956C78.2317 31.6956 76.9147 32.9548 76.9147 34.4704C76.9147 36.0211 78.2317 37.2685 79.844 37.2685Z" fill="#262626"/>
</svg>
