<svg width="106" height="78" viewBox="0 0 106 78" fill="none" xmlns="http://www.w3.org/2000/svg">
<rect x="29" y="1" width="76" height="76" rx="13" fill="#FFDECC"/>
<rect x="29" y="1" width="76" height="76" rx="13" stroke="#262626" stroke-width="2"/>
<path d="M65.9375 29.5607C65.9375 29.0575 65.6739 28.6027 65.3691 28.2024C65.0562 27.7915 64.875 27.304 64.875 26.7812C64.875 25.3142 66.3021 24.125 68.0625 24.125C69.8229 24.125 71.25 25.3142 71.25 26.7813C71.25 27.304 71.0688 27.7915 70.7559 28.2024C70.4511 28.6027 70.1875 29.0575 70.1875 29.5607C70.1875 30.0315 70.5809 30.4073 71.0509 30.3793C73.7576 30.2178 76.4206 29.8955 79.0306 29.4219C79.3178 29.3698 79.6138 29.4381 79.8491 29.6109C80.0844 29.7837 80.2383 30.0457 80.2745 30.3353C80.5919 32.8704 80.7718 35.4479 80.8067 38.06C80.8136 38.579 80.3922 38.9999 79.8732 39C79.37 39 78.9152 38.7364 78.5149 38.4316C78.104 38.1187 77.6165 37.9375 77.0937 37.9375C75.6267 37.9375 74.4375 39.3646 74.4375 41.125C74.4375 42.8854 75.6267 44.3125 77.0937 44.3125C77.6165 44.3125 78.104 44.1313 78.5149 43.8184C78.9152 43.5136 79.37 43.25 79.8732 43.25C80.3129 43.25 80.6621 43.6207 80.6304 44.0593C80.4622 46.3806 80.1794 48.6703 79.7873 50.9228C79.7104 51.3646 79.3645 51.7105 78.9227 51.7874C76.3456 52.2359 73.7198 52.5415 71.0538 52.6958C70.582 52.7231 70.1875 52.3457 70.1875 51.8732C70.1875 51.37 70.4511 50.9152 70.7559 50.5149C71.0688 50.104 71.25 49.6165 71.25 49.0938C71.25 47.6267 69.8229 46.4375 68.0625 46.4375C66.3021 46.4375 64.875 47.6267 64.875 49.0938C64.875 49.6165 65.0562 50.104 65.3691 50.5149C65.6739 50.9152 65.9375 51.37 65.9375 51.8732C65.9375 52.3854 65.5181 52.7991 65.0061 52.7846C62.7543 52.7207 60.5292 52.549 58.3359 52.2744C58.0462 52.2381 57.7842 52.0843 57.6114 51.849C57.4386 51.6137 57.3703 51.3176 57.4224 51.0304C57.8373 48.7439 58.1361 46.4168 58.3124 44.0552C58.345 43.6191 57.998 43.25 57.5607 43.25C57.0575 43.25 56.6027 43.5136 56.2024 43.8184C55.7915 44.1313 55.304 44.3125 54.7812 44.3125C53.3142 44.3125 52.125 42.8854 52.125 41.125C52.125 39.3646 53.3142 37.9375 54.7812 37.9375C55.304 37.9375 55.7915 38.1187 56.2024 38.4316C56.6027 38.7364 57.0575 39 57.5607 39C58.0797 39 58.5011 38.5792 58.494 38.0603C58.4622 35.7536 58.3139 33.4754 58.0546 31.2314C58.0173 30.9091 58.1294 30.5875 58.3588 30.3581C58.5881 30.1288 58.9098 30.0167 59.232 30.054C61.1336 30.2737 63.0597 30.4138 65.0068 30.4707C65.5184 30.4857 65.9375 30.0724 65.9375 29.5607Z" fill="#262626"/>
</svg>
