<svg width="106" height="78" viewBox="0 0 106 78" fill="none" xmlns="http://www.w3.org/2000/svg">
<rect x="29" y="1" width="76" height="76" rx="13" fill="#FFDECC"/>
<rect x="29" y="1" width="76" height="76" rx="13" stroke="#262626" stroke-width="2"/>
<path d="M65.9375 28.4216C63.7906 27.0473 61.2377 26.25 58.5 26.25C56.8875 26.25 55.3374 26.5268 53.8959 27.0362C53.4714 27.1863 53.1875 27.5877 53.1875 28.038V48.2255C53.1875 48.5704 53.3549 48.8939 53.6365 49.093C53.9181 49.2921 54.2789 49.3422 54.6041 49.2273C55.8212 48.7971 57.1321 48.5625 58.5 48.5625C61.3263 48.5625 63.9163 49.5644 65.9375 51.2339V28.4216Z" fill="#262626"/>
<path d="M68.0625 51.2339C70.0837 49.5644 72.6737 48.5625 75.5 48.5625C76.8679 48.5625 78.1788 48.7971 79.3959 49.2273C79.7211 49.3422 80.0819 49.2921 80.3635 49.093C80.6451 48.8939 80.8125 48.5704 80.8125 48.2255V28.038C80.8125 27.5877 80.5286 27.1863 80.1041 27.0362C78.6626 26.5268 77.1125 26.25 75.5 26.25C72.7623 26.25 70.2094 27.0473 68.0625 28.4216V51.2339Z" fill="#262626"/>
</svg>
