<svg width="17" height="21" viewBox="0 0 17 21" fill="none" xmlns="http://www.w3.org/2000/svg">
<path fill-rule="evenodd" clip-rule="evenodd" d="M8.0258 20.7102C8.05692 20.7282 8.08138 20.7421 8.0987 20.7519L8.12747 20.7679C8.35709 20.894 8.64193 20.893 8.87178 20.7683L8.9013 20.7519C8.91862 20.7421 8.94308 20.7282 8.9742 20.7102C9.03644 20.6741 9.12537 20.6215 9.23718 20.5527C9.46072 20.415 9.77629 20.212 10.1532 19.9458C10.9058 19.4141 11.91 18.6252 12.9164 17.5948C14.9195 15.544 17 12.4627 17 8.5C17 3.80558 13.1944 0 8.5 0C3.80558 0 0 3.80558 0 8.5C0 12.4627 2.08051 15.544 4.08356 17.5948C5.08996 18.6252 6.09415 19.4141 6.84676 19.9458C7.22371 20.212 7.53928 20.415 7.76282 20.5527C7.87463 20.6215 7.96356 20.6741 8.0258 20.7102ZM8.5 11.5909C10.2071 11.5909 11.5909 10.2071 11.5909 8.5C11.5909 6.79294 10.2071 5.40909 8.5 5.40909C6.79294 5.40909 5.40909 6.79294 5.40909 8.5C5.40909 10.2071 6.79294 11.5909 8.5 11.5909Z" fill="#262626"/>
</svg>
