<svg width="106" height="78" viewBox="0 0 106 78" fill="none" xmlns="http://www.w3.org/2000/svg">
<rect x="29" y="1" width="76" height="76" rx="13" fill="#FFDECC"/>
<rect x="29" y="1" width="76" height="76" rx="13" stroke="#262626" stroke-width="2"/>
<path fill-rule="evenodd" clip-rule="evenodd" d="M70.7049 24.2595C71.1317 24.4974 71.3411 24.9957 71.2126 25.4671L68.3911 35.8125H78.6875C79.1106 35.8125 79.4934 36.0635 79.662 36.4515C79.8306 36.8396 79.7529 37.2907 79.4643 37.6L64.5893 53.5375C64.2559 53.8947 63.7219 53.9784 63.2951 53.7405C62.8684 53.5026 62.6589 53.0043 62.7875 52.5329L65.6089 42.1875H55.3125C54.8894 42.1875 54.5067 41.9365 54.3381 41.5485C54.1694 41.1604 54.2471 40.7093 54.5358 40.4L69.4108 24.4625C69.7442 24.1054 70.2782 24.0216 70.7049 24.2595Z" fill="#262626"/>
</svg>
