<svg width="106" height="78" viewBox="0 0 106 78" fill="none" xmlns="http://www.w3.org/2000/svg">
<rect x="29" y="1" width="76" height="76" rx="13" fill="#FFDECC"/>
<rect x="29" y="1" width="76" height="76" rx="13" stroke="#262626" stroke-width="2"/>
<path d="M76.0312 25.1875C74.5642 25.1875 73.375 26.3767 73.375 27.8438V50.1562C73.375 51.6233 74.5642 52.8125 76.0312 52.8125H77.0938C78.5608 52.8125 79.75 51.6233 79.75 50.1562V27.8438C79.75 26.3767 78.5608 25.1875 77.0938 25.1875H76.0312Z" fill="#262626"/>
<path d="M63.8125 34.2188C63.8125 32.7517 65.0017 31.5625 66.4688 31.5625H67.5312C68.9983 31.5625 70.1875 32.7517 70.1875 34.2188V50.1562C70.1875 51.6233 68.9983 52.8125 67.5312 52.8125H66.4688C65.0017 52.8125 63.8125 51.6233 63.8125 50.1562V34.2188Z" fill="#262626"/>
<path d="M54.25 40.5938C54.25 39.1267 55.4392 37.9375 56.9062 37.9375H57.9688C59.4358 37.9375 60.625 39.1267 60.625 40.5938V50.1562C60.625 51.6233 59.4358 52.8125 57.9688 52.8125H56.9062C55.4392 52.8125 54.25 51.6233 54.25 50.1562V40.5938Z" fill="#262626"/>
</svg>
