<svg width="106" height="78" viewBox="0 0 106 78" fill="none" xmlns="http://www.w3.org/2000/svg">
<rect x="29" y="1" width="76" height="76" rx="13" fill="#FFDECC"/>
<rect x="29" y="1" width="76" height="76" rx="13" stroke="#262626" stroke-width="2"/>
<path d="M56.375 31.0312C56.375 27.8038 58.9913 25.1875 62.2188 25.1875C65.4462 25.1875 68.0625 27.8038 68.0625 31.0312C68.0625 34.2587 65.4462 36.875 62.2188 36.875C58.9913 36.875 56.375 34.2587 56.375 31.0312Z" fill="#262626"/>
<path d="M70.1875 34.2188C70.1875 31.5781 72.3281 29.4375 74.9688 29.4375C77.6094 29.4375 79.75 31.5781 79.75 34.2188C79.75 36.8594 77.6094 39 74.9688 39C72.3281 39 70.1875 36.8594 70.1875 34.2188Z" fill="#262626"/>
<path d="M52.125 49.0938C52.125 43.5191 56.6441 39 62.2188 39C67.7934 39 72.3125 43.5191 72.3125 49.0938V49.0974C72.3125 49.1538 72.312 49.2104 72.311 49.2665C72.3049 49.6327 72.1105 49.9699 71.7967 50.1589C68.9985 51.8437 65.7201 52.8125 62.2188 52.8125C58.7174 52.8125 55.439 51.8437 52.6408 50.1589C52.327 49.9699 52.1326 49.6327 52.1265 49.2665C52.1255 49.2091 52.125 49.1515 52.125 49.0938Z" fill="#262626"/>
<path d="M74.4373 49.0982C74.4373 49.1663 74.4367 49.2345 74.4355 49.3022C74.4275 49.782 74.3117 50.2452 74.1055 50.6619C74.3911 50.6789 74.6788 50.6875 74.9685 50.6875C77.2291 50.6875 79.3704 50.1638 81.2749 49.2301C81.6249 49.0586 81.8528 48.7092 81.8688 48.3198C81.8728 48.2241 81.8748 48.1279 81.8748 48.0312C81.8748 44.217 78.7827 41.125 74.9685 41.125C73.9111 41.125 72.9091 41.3627 72.0132 41.7875C73.5357 43.8253 74.4373 46.3543 74.4373 49.0938V49.0982Z" fill="#262626"/>
</svg>
