<svg width="106" height="78" viewBox="0 0 106 78" fill="none" xmlns="http://www.w3.org/2000/svg">
<rect x="29" y="1" width="76" height="76" rx="13" fill="#FFDECC"/>
<rect x="29" y="1" width="76" height="76" rx="13" stroke="#262626" stroke-width="2"/>
<path fill-rule="evenodd" clip-rule="evenodd" d="M77.5527 33.9682L73.216 37.5821C73.428 38.5147 73.428 39.4853 73.216 40.4179L77.5527 44.0318C79.0658 40.8583 79.0658 37.1417 77.5527 33.9682ZM72.0318 49.5527L68.4179 45.216C67.4853 45.428 66.5147 45.428 65.5821 45.216L61.9682 49.5527C65.1417 51.0658 68.8583 51.0658 72.0318 49.5527ZM56.4473 44.0318L60.784 40.4179C60.572 39.4853 60.572 38.5147 60.784 37.5821L56.4473 33.9682C54.9342 37.1417 54.9342 40.8583 56.4473 44.0318ZM61.9682 28.4473L65.5821 32.784C66.5147 32.572 67.4853 32.572 68.4179 32.784L72.0318 28.4473C68.8583 26.9342 65.1417 26.9342 61.9682 28.4473ZM74.2328 27.2292C75.1351 27.7846 75.9866 28.4528 76.7669 29.2331C77.5472 30.0134 78.2154 30.8649 78.7708 31.7672C81.4931 36.1898 81.4931 41.8102 78.7708 46.2328C78.2154 47.1351 77.5472 47.9866 76.7669 48.7669C75.9866 49.5472 75.1351 50.2154 74.2328 50.7708C69.8102 53.4931 64.1898 53.4931 59.7672 50.7708C58.8649 50.2154 58.0134 49.5472 57.2331 48.7669C56.4528 47.9866 55.7846 47.1351 55.2292 46.2328C52.5069 41.8102 52.5069 36.1898 55.2292 31.7672C55.7846 30.8649 56.4528 30.0134 57.2331 29.2331C58.0134 28.4528 58.8649 27.7846 59.7672 27.2292C64.1898 24.5069 69.8102 24.5069 74.2328 27.2292ZM70.0052 35.9948C69.544 35.5336 69.0057 35.202 68.4329 34.9975C67.5086 34.6675 66.4914 34.6675 65.5671 34.9975C64.9943 35.202 64.456 35.5336 63.9948 35.9948C63.5336 36.456 63.202 36.9943 62.9975 37.5671C62.6675 38.4914 62.6675 39.5086 62.9975 40.4329C63.202 41.0057 63.5336 41.544 63.9948 42.0052C64.456 42.4664 64.9943 42.798 65.5671 43.0025C66.4914 43.3325 67.5086 43.3325 68.4329 43.0025C69.0057 42.798 69.544 42.4664 70.0052 42.0052C70.4664 41.544 70.798 41.0057 71.0025 40.4329C71.3325 39.5086 71.3325 38.4914 71.0025 37.5671C70.798 36.9943 70.4664 36.456 70.0052 35.9948Z" fill="#262626"/>
</svg>
