<svg width="20" height="20" viewBox="0 0 20 20" fill="none" xmlns="http://www.w3.org/2000/svg">
<path fill-rule="evenodd" clip-rule="evenodd" d="M10 0C4.47715 0 0 4.47715 0 10C0 15.5228 4.47715 20 10 20C15.5228 20 20 15.5228 20 10C20 4.47715 15.5228 0 10 0ZM10.7692 3.84615C10.7692 3.42132 10.4248 3.07692 10 3.07692C9.57516 3.07692 9.23077 3.42132 9.23077 3.84615V10C9.23077 10.4248 9.57516 10.7692 10 10.7692H14.6154C15.0402 10.7692 15.3846 10.4248 15.3846 10C15.3846 9.57517 15.0402 9.23077 14.6154 9.23077H10.7692V3.84615Z" fill="#262626"/>
</svg>
