<svg width="106" height="78" viewBox="0 0 106 78" fill="none" xmlns="http://www.w3.org/2000/svg">
<rect x="29" y="1" width="76" height="76" rx="13" fill="#FFDECC"/>
<rect x="29" y="1" width="76" height="76" rx="13" stroke="#262626" stroke-width="2"/>
<path fill-rule="evenodd" clip-rule="evenodd" d="M54.25 25.1875C54.8368 25.1875 55.3125 25.6632 55.3125 26.25V27.0142L57.9166 26.3632C61.1154 25.5635 64.4947 25.9344 67.4438 27.409L67.5964 27.4853C70.0418 28.708 72.8386 29.0347 75.5001 28.4085L79.9053 27.3719C80.2409 27.293 80.594 27.3818 80.8523 27.6101C81.1106 27.8384 81.2421 28.1778 81.205 28.5206C80.9456 30.9153 80.8125 33.3481 80.8125 35.8125C80.8125 38.2974 80.9479 40.7503 81.2115 43.1643C81.2698 43.6978 80.9211 44.191 80.3987 44.3139L75.9868 45.352C72.8414 46.0921 69.5362 45.706 66.646 44.2609L66.4934 44.1846C63.998 42.9369 61.1386 42.623 58.432 43.2997L55.3125 44.0796V51.75C55.3125 52.3368 54.8368 52.8125 54.25 52.8125C53.6632 52.8125 53.1875 52.3368 53.1875 51.75V26.25C53.1875 25.6632 53.6632 25.1875 54.25 25.1875Z" fill="#262626"/>
</svg>
