<svg width="106" height="78" viewBox="0 0 106 78" fill="none" xmlns="http://www.w3.org/2000/svg">
<rect x="29" y="1" width="76" height="76" rx="13" fill="#FFDECC"/>
<rect x="29" y="1" width="76" height="76" rx="13" stroke="#262626" stroke-width="2"/>
<path fill-rule="evenodd" clip-rule="evenodd" d="M78.2648 24.3393C78.531 24.54 78.6875 24.8541 78.6875 25.1875V30.4765C78.6879 30.4926 78.6879 30.5086 78.6875 30.5245V45.0957C78.6875 46.9932 77.4296 48.6609 75.6051 49.1821L73.7351 49.7164C71.4248 50.3765 69.125 48.6418 69.125 46.239C69.125 44.6243 70.1954 43.2052 71.748 42.7616L75.0213 41.8264C75.9335 41.5658 76.5625 40.7319 76.5625 39.7832V31.9086L63.8125 35.5515V49.3457C63.8125 51.2432 62.5546 52.9109 60.7301 53.4321L58.8601 53.9664C56.5498 54.6265 54.25 52.8918 54.25 50.489C54.25 48.8743 55.3204 47.4552 56.873 47.0116L60.1463 46.0764C61.0585 45.8158 61.6875 44.9819 61.6875 44.0332V34.7735C61.6871 34.7574 61.6871 34.7414 61.6875 34.7255V29.4375C61.6875 28.9631 62.002 28.5462 62.4581 28.4159L77.3331 24.1659C77.6537 24.0743 77.9987 24.1385 78.2648 24.3393Z" fill="#262626"/>
</svg>
