<svg width="106" height="78" viewBox="0 0 106 78" fill="none" xmlns="http://www.w3.org/2000/svg">
<rect x="29" y="1" width="76" height="76" rx="13" fill="#FFDECC"/>
<rect x="29" y="1" width="76" height="76" rx="13" stroke="#262626" stroke-width="2"/>
<path fill-rule="evenodd" clip-rule="evenodd" d="M79.1822 24.125C78.6504 24.125 78.1305 24.2824 77.688 24.5774L70.4928 29.3742C68.5584 30.6638 66.8087 32.197 65.2838 33.9303C68.2801 35.303 70.6978 37.7207 72.0705 40.717C73.8038 39.1921 75.337 37.4424 76.6266 35.508L81.4234 28.3128C81.7184 27.8703 81.8758 27.3504 81.8758 26.8186C81.8758 25.331 80.6698 24.125 79.1822 24.125ZM67.4251 43.9936C68.4825 43.4062 69.4954 42.7489 70.4577 42.0276C69.2654 39.0851 66.9157 36.7353 63.9732 35.5431C63.2519 36.5054 62.5946 37.5183 62.0072 38.5757L61.6126 39.2859C64.0726 39.9895 66.0113 41.9282 66.7149 44.3882L67.4251 43.9936ZM59.5633 41.125C56.6292 41.125 54.2508 43.5035 54.2508 46.4375C54.2508 47.6111 53.2994 48.5625 52.1258 48.5625C52.0777 48.5625 52.0298 48.5609 51.9822 48.5577C51.591 48.5319 51.2173 48.7236 51.0101 49.0564C50.8029 49.3893 50.7958 49.8092 50.9917 50.1488C52.2749 52.3736 54.6806 53.875 57.4383 53.875C61.5459 53.875 64.8758 50.5451 64.8758 46.4375C64.8758 43.5035 62.4973 41.125 59.5633 41.125Z" fill="#262626"/>
</svg>
