<svg width="40" height="40" viewBox="0 0 40 40" fill="none" xmlns="http://www.w3.org/2000/svg">
<g opacity="0.9">
<path d="M24.0433 0.735812C24.1369 0.745846 24.2272 0.755883 24.3209 0.769262C24.2306 0.755883 24.1369 0.745846 24.0433 0.735812Z" fill="#262626"/>
<path d="M29.8281 2.60234L29.3231 2.33142C29.3097 2.32473 29.293 2.31469 29.2796 2.308C29.2261 2.28124 29.1726 2.25448 29.119 2.22772C29.1525 2.24444 29.1893 2.26118 29.2261 2.2779C29.1458 2.23442 29.0655 2.19428 28.9853 2.1508L28.6307 1.99025C28.6608 2.00362 28.6943 2.02035 28.7244 2.03373C28.2895 1.83304 27.848 1.65243 27.3932 1.49188C25.4499 1.03365 23.4463 0.842993 19.9979 0.786132C26.3897 1.10054 28.5839 2.01366 29.3197 2.32807C29.4903 2.41503 29.6609 2.50534 29.8281 2.60234Z" fill="#262626"/>
<path d="M24.7408 0.582015C24.4899 0.52181 24.2391 0.461604 24.025 0.414778L23.8912 0.388014C23.1554 0.270948 21.6937 0.501743 19.9979 0.792736C20.1451 0.772668 20.2889 0.755943 20.4361 0.739219C23.2423 0.418123 24.0551 0.471642 24.7408 0.585363V0.582015Z" fill="#262626"/>
<path d="M22.6704 0.18056C22.4496 0.150457 22.1753 0.120354 21.9613 0.0969407C21.9613 0.0969407 21.9546 0.0969407 21.9512 0.0969407C21.9111 0.106975 21.9044 0.110322 19.9979 0.789307C22.2121 0.200631 22.4295 0.197283 22.7272 0.190593C22.7105 0.190593 22.6904 0.187252 22.6704 0.183908V0.18056Z" fill="#262626"/>
<path d="M13.2165 38.8292C13.2633 38.8459 13.3135 38.8626 13.3636 38.8827C13.7182 39.0031 14.1597 39.1402 14.4975 39.2439C14.8487 39.3443 15.3203 39.4546 15.6749 39.5383C11.0625 38.4111 7.12568 35.8858 3.97827 32.0259L4.86463 33.1197C4.975 33.2434 5.072 33.3538 5.16566 33.4542C5.49344 33.7953 5.88143 34.19 6.27611 34.5713C6.52028 34.7954 6.82465 35.063 7.24609 35.4376C7.4635 35.6115 7.7177 35.8055 7.97859 35.9995C10.2162 37.6485 11.7448 38.2572 13.2198 38.8325L13.2165 38.8292Z" fill="#262626"/>
<path d="M21 0.0535071C20.9699 0.0434728 20.9331 0.030102 20.903 0.0200677C20.903 0.0200677 20.8996 0.0200677 20.8963 0.0200677C20.6889 0.0100334 20.5618 0.00668583 20.5484 0.00668583C20.4313 0.00668583 20.2842 0 20.1604 0C20.3946 0.0100343 20.4012 0.0167209 20.5083 0.153856C20.4637 0.314404 20.2942 0.526236 19.9999 0.789357C20.9398 0.267575 20.9699 0.167229 21.0033 0.0535071H21Z" fill="#262626"/>
<path d="M1.34585 27.3233C5.0117 35.9796 14.1931 39.2942 17.4375 39.8394C17.4542 39.8394 17.4676 39.8428 17.4843 39.8461C17.6549 39.8662 17.8689 39.8896 18.0362 39.9063L18.3773 39.9364C18.3773 39.9364 18.3907 39.9364 18.3941 39.9364C16.4809 39.7591 3.3226 35.8759 0.359149 23.9318C0.392597 24.109 0.4227 24.283 0.456147 24.4435C0.676901 25.2764 1.01472 26.3668 1.29903 27.1963C1.31575 27.2397 1.33247 27.2799 1.34585 27.3233Z" fill="#262626"/>
<path d="M19.4391 0.153768C19.894 0.324351 19.9174 0.424691 19.9977 0.789269C20.3288 0.0433893 19.6398 0.0300144 19.031 0.0199801C18.817 0.0300144 18.5327 0.0500776 18.3219 0.0668014L18.1212 0.0835313C18.4323 0.0634628 19.0812 0.0199781 19.4391 0.153768Z" fill="#262626"/>
<path d="M19.5453 39.9967C19.6223 39.9967 19.6959 40 19.7728 40H19.8062C19.8062 40 19.833 40 19.843 40C19.93 40 20.0136 40 20.1006 40C20.1742 40 20.2477 40 20.3113 40C20.3146 40 20.318 40 20.3213 40C18.8028 39.9733 -2.92471 31.7385 0.587278 15.008C0.587278 15.008 0.587278 15.008 0.587278 15.0114C0.466867 15.483 0.3498 16.1185 0.249458 16.5935C0.15246 17.2022 0.0721859 18.0217 0.00529083 18.6338C-0.352598 33.6417 17.5586 39.806 19.5453 39.9967Z" fill="#262626"/>
<path d="M16.2717 0.347903C16.2315 0.354592 16.188 0.364629 16.1479 0.371318C18.5929 -0.046776 19.6131 0.55528 20.0011 0.789412C19.3087 0.0268086 18.1046 0.0401852 16.275 0.347903H16.2717Z" fill="#262626"/>
<path d="M2.54131 10.1713C-6.28549 27.1895 18.4389 39.2038 21.3957 39.9497C21.4158 39.9497 21.4358 39.9497 21.4559 39.9463L21.5863 39.9363C21.6064 39.9363 21.6265 39.933 21.6499 39.9296C21.8004 39.9162 21.981 39.8962 22.1349 39.8828C22.155 39.8828 22.175 39.8795 22.1917 39.8761C18.6898 37.2137 14.4286 35.7621 11.0537 32.8989C9.4014 31.4975 5.53152 28.2163 3.27047 23.828C-1.25498 15.048 2.7721 9.44888 4.74885 7.04066C4.67861 7.12093 4.61172 7.2012 4.54482 7.27813L4.21035 7.67616C3.68857 8.39528 3.02965 9.38198 2.55804 10.1412C2.55135 10.1513 2.548 10.1613 2.54131 10.1713Z" fill="#262626"/>
<path d="M15.3669 0.538424C15.3669 0.538424 15.3903 0.531735 15.4037 0.528391C15.3736 0.53508 15.3368 0.541769 15.31 0.548458C15.0893 0.59863 14.8016 0.675558 14.5842 0.735764C14.136 0.859519 13.544 1.04348 13.1092 1.20738C12.8416 1.30772 12.487 1.44151 12.2262 1.55188C11.9117 1.68567 11.5003 1.87967 11.1893 2.0235C10.8715 2.17066 10.4601 2.38807 10.1591 2.56534C9.80455 2.77272 9.36639 3.04364 8.9784 3.2945C4.98142 6.04389 1.82731 10.4556 2.26213 15.4293C3.29232 27.1627 16.581 35.2101 21.5814 38.2405C22.7365 38.9407 23.3475 39.4268 23.4144 39.6988C23.4144 39.6988 23.4378 39.6955 23.4478 39.6921C23.7221 39.6419 24.0666 39.5683 24.3409 39.5115C24.3509 39.5115 24.3609 39.5081 24.371 39.5048C24.4679 39.4714 24.5382 39.3309 24.6051 39.2506C24.3776 38.8124 23.9328 38.498 21.5279 36.9227C15.3401 32.8688 9.11219 28.2062 5.47644 21.6003C-2.72824 6.68608 13.1828 -1.03027 19.9994 0.785933C18.6782 0.274186 17.0694 0.217325 15.3702 0.535076L15.3669 0.538424Z" fill="#262626"/>
<path d="M22.2856 35.257C26.0518 37.9194 26.9482 38.5516 25.7575 39.1403C25.7709 39.1369 25.7843 39.1336 25.7943 39.1302C25.9783 39.0734 26.1856 39.0031 26.3897 38.9362C26.5301 38.8894 26.6673 38.8392 26.8044 38.7891C28.4902 38.0064 27.0218 36.9227 23.5098 34.3372C19.6266 31.4774 14.7901 27.9186 10.6894 22.7142C-1.41862 7.34838 11.5055 -0.257589 19.9945 0.789319C10.3482 -1.30115 -10.4093 12.1581 22.2823 35.257H22.2856Z" fill="#262626"/>
<path d="M24.499 32.2668C28.8906 35.6349 30.5362 36.8959 28.3555 38.1535C28.3722 38.1468 28.3889 38.1368 28.4056 38.1301C28.7702 37.9562 29.2251 37.7153 29.5763 37.5381C31.2754 36.5447 30.5964 35.3907 29.6097 34.2937C25.479 29.7013 19.9936 26.6576 15.7625 22.179C2.14597 7.76308 11.2805 0.591931 19.9969 0.792616C11.1133 -0.0168142 -4.74756 9.84351 24.499 32.2701V32.2668Z" fill="#262626"/>
<path d="M27.8944 29.4807C32.0787 32.8322 33.5704 34.635 31.3361 36.4478C31.7174 36.1803 32.2024 35.7989 32.5837 35.508C32.7744 35.3508 32.9751 35.1802 33.1657 35.0096C34.9016 33.4208 33.9283 32.5612 22.2484 22.2728C5.31729 7.36186 12.9467 2.09721 18.4655 0.996787C13.4618 1.92997 -0.492549 6.73639 27.8944 29.4807Z" fill="#262626"/>
<path d="M19.7738 0.806112C19.3624 0.842905 18.9209 0.906458 18.4626 0.996766C19.0513 0.886389 19.5129 0.829526 19.7738 0.806112Z" fill="#262626"/>
<path d="M19.997 0.789339C19.997 0.789339 19.9034 0.796024 19.7729 0.806059C19.8465 0.799369 19.9235 0.792684 19.997 0.789339Z" fill="#262626"/>
<path d="M27.1145 22.9183C34.0549 28.5041 36.6604 31.0595 34.4027 33.8356C34.4194 33.8189 34.4328 33.8055 34.4462 33.7888C34.8007 33.4075 35.2289 32.9024 35.5633 32.5178C35.57 32.5077 35.5767 32.5011 35.5834 32.491C37.5602 29.9022 35.6704 27.1762 27.5226 20.8446C6.2633 4.32819 17.5251 1.24433 20.0002 0.792792C18.1974 1.02024 3.08244 3.57897 27.1178 22.9183H27.1145Z" fill="#262626"/>
<path d="M28.549 18.4496C36.4025 24.3163 38.5632 27.3166 37.0948 30.3168C37.155 30.2165 37.2119 30.1195 37.2688 30.0225L37.3223 29.9288C37.3624 29.8586 37.3992 29.795 37.436 29.7315L37.8842 28.8685C37.9377 28.7581 37.9912 28.6478 38.0447 28.5407C39.7974 24.5203 33.1547 19.6838 28.7463 16.4762C14.3806 6.02385 16.0597 2.18073 19.9964 0.795999C16.635 1.67232 10.7348 5.15087 28.549 18.4563V18.4496Z" fill="#262626"/>
<path d="M28.9306 13.8941C35.7874 18.7239 39.8947 21.9549 39.0418 25.9854C39.082 25.8482 39.1255 25.7111 39.1622 25.5773C39.2994 25.0756 39.4365 24.5103 39.5469 24.0588C40.1356 20.0417 35.9881 16.9779 29.1748 12.3187C24.6728 9.23819 16.2942 3.50528 19.9968 0.789339C14.1903 3.50862 25.2849 11.3253 28.9306 13.8941Z" fill="#262626"/>
<path d="M29.435 10.3421C37.1614 15.3558 39.787 17.6303 39.9275 21.0821C39.9308 21.0152 39.9375 20.9449 39.9409 20.878L39.9643 20.0352L39.9442 19.219C39.9409 19.1254 39.9375 19.0351 39.9308 18.9414C39.6331 15.3191 34.8067 12.3322 28.7025 8.55931C24.4078 5.90692 19.5412 2.89664 19.9994 0.792792C17.9892 2.92006 24.8794 7.38865 29.4383 10.3454L29.435 10.3421Z" fill="#262626"/>
<path d="M28.9351 7.14113C36.0527 11.1816 38.7319 13.145 39.5848 16.1051C39.4778 15.5933 39.3038 14.9444 39.16 14.3959C39.1265 14.2822 39.0931 14.1718 39.0597 14.0581C37.9024 11.0478 34.0258 8.88709 27.2928 5.34834C22.5332 2.84312 20.9645 1.86311 19.9979 0.792792C20.5531 2.3849 24.0685 4.38171 28.9351 7.14448V7.14113Z" fill="#262626"/>
<path d="M38.0415 11.4457C38.0114 11.3855 37.9846 11.3253 37.9545 11.2651L37.5498 10.4657L37.2789 9.98741C37.2287 9.90045 37.1785 9.81348 37.125 9.72652C36.2086 8.30166 34.5496 7.24137 32.1748 5.99712C28.2514 3.94344 24.0437 2.56206 19.9999 0.789339C21.2608 1.59208 23.5788 2.65572 26.5121 4.00365C34.2954 7.57919 36.6935 9.12447 38.0448 11.4457H38.0415Z" fill="#262626"/>
<path d="M35.6146 7.55578C35.5778 7.50895 35.5443 7.46881 35.5042 7.41864C35.4808 7.38854 35.4574 7.36178 35.4306 7.33168C35.4005 7.29488 35.3704 7.2581 35.3403 7.2213C35.046 6.88014 34.7148 6.50887 34.4506 6.21118C32.7113 4.42843 27.848 2.60554 19.9979 0.789339C31.9052 4.35819 34.2098 6.03057 35.6146 7.55578Z" fill="#262626"/>
<path d="M32.3501 4.30802C32.0591 4.08392 31.7413 3.84978 31.4671 3.6491C31.4102 3.60896 31.3533 3.57218 31.2965 3.53204C29.4067 2.34131 25.6104 1.41815 19.9979 0.789339C23.4898 1.30778 29.7345 2.47844 32.5976 4.5087C32.514 4.43846 32.4304 4.37157 32.3501 4.30802Z" fill="#262626"/>
<path d="M24.4264 0.786041C24.8913 0.849592 25.3529 0.93321 25.8011 1.0369C26.6004 1.17069 26.7008 1.2008 27.3095 1.39814C27.2928 1.39145 27.2727 1.38141 27.256 1.37807C26.9516 1.25766 26.5369 1.11717 26.2258 1.0068H26.2191C25.4866 0.769319 24.627 0.739222 23.6303 0.699085C23.6771 0.702429 23.7206 0.709111 23.7674 0.712456C23.259 0.66563 22.7406 0.638871 22.2155 0.638871C21.4094 0.679008 21.3024 0.685705 19.9979 0.792737C22.0717 0.705774 23.0082 0.722494 24.4264 0.789389V0.786041ZM24.0417 0.73922C24.1354 0.749254 24.2257 0.759291 24.3193 0.77267C24.229 0.759291 24.1354 0.749254 24.0417 0.73922Z" fill="#262626"/>
</g>
</svg>
