<svg width="106" height="78" viewBox="0 0 106 78" fill="none" xmlns="http://www.w3.org/2000/svg">
<rect x="29" y="1" width="76" height="76" rx="13" fill="#FFDECC"/>
<rect x="29" y="1" width="76" height="76" rx="13" stroke="#262626" stroke-width="2"/>
<path fill-rule="evenodd" clip-rule="evenodd" d="M64.8767 27.3799V34.4922C64.8767 35.6194 64.4289 36.7004 63.6319 37.4974L60.2644 40.8649C62.7398 40.6887 65.2419 41.1822 67.4769 42.2997C69.975 43.5487 72.866 43.8762 75.5697 43.2003L75.9735 43.0994L70.3715 37.4974C69.5745 36.7004 69.1267 35.6194 69.1267 34.4922V27.3799C68.4242 27.3352 67.7157 27.3125 67.0017 27.3125C66.2877 27.3125 65.5791 27.3352 64.8767 27.3799ZM71.2517 27.5757C71.7804 27.5763 72.2389 27.1826 72.306 26.6445C72.3786 26.0622 71.9655 25.5313 71.3832 25.4587C71.0196 25.4134 70.6544 25.3736 70.2876 25.3395C69.2055 25.2389 68.1095 25.1875 67.0017 25.1875C65.8939 25.1875 64.7979 25.2389 63.7158 25.3395C63.349 25.3736 62.9837 25.4134 62.6202 25.4587C62.0379 25.5313 61.6247 26.0622 61.6974 26.6445C61.7645 27.1826 62.223 27.5763 62.7517 27.5757V34.4922C62.7517 35.0558 62.5278 35.5963 62.1293 35.9948L53.2139 44.9102C50.9173 47.2068 51.9347 51.2505 55.2977 51.8247C59.1027 52.4743 63.0131 52.8125 67.0017 52.8125C70.9903 52.8125 74.9007 52.4743 78.7057 51.8247C82.0687 51.2505 83.0861 47.2068 80.7895 44.9102L71.8741 35.9948C71.4756 35.5963 71.2517 35.0558 71.2517 34.4922V27.5757Z" fill="#262626"/>
</svg>
