<svg width="106" height="78" viewBox="0 0 106 78" fill="none" xmlns="http://www.w3.org/2000/svg">
<rect x="29" y="1" width="76" height="76" rx="13" fill="#FFDECC"/>
<rect x="29" y="1" width="76" height="76" rx="13" stroke="#262626" stroke-width="2"/>
<path fill-rule="evenodd" clip-rule="evenodd" d="M53.1875 41.125C53.1875 34.6702 58.4202 29.4375 64.875 29.4375C65.4618 29.4375 65.9375 29.9132 65.9375 30.5V40.0625H75.5C76.0868 40.0625 76.5625 40.5382 76.5625 41.125C76.5625 47.5798 71.3298 52.8125 64.875 52.8125C58.4202 52.8125 53.1875 47.5798 53.1875 41.125Z" fill="#262626"/>
<path fill-rule="evenodd" clip-rule="evenodd" d="M68.0625 26.25C68.0625 25.6632 68.5382 25.1875 69.125 25.1875C75.5798 25.1875 80.8125 30.4202 80.8125 36.875C80.8125 37.4618 80.3368 37.9375 79.75 37.9375H69.125C68.5382 37.9375 68.0625 37.4618 68.0625 36.875V26.25Z" fill="#262626"/>
</svg>
