<svg width="106" height="78" viewBox="0 0 106 78" fill="none" xmlns="http://www.w3.org/2000/svg">
<rect x="29" y="1" width="76" height="76" rx="13" fill="#FFDECC"/>
<rect x="29" y="1" width="76" height="76" rx="13" stroke="#262626" stroke-width="2"/>
<path fill-rule="evenodd" clip-rule="evenodd" d="M65.2835 26.5485C65.9187 25.0214 68.082 25.0214 68.7171 26.5485L71.6666 33.6399L79.3224 34.2536C80.971 34.3858 81.6395 36.4432 80.3835 37.5192L74.5506 42.5157L76.3326 49.9864C76.7164 51.5952 74.9662 52.8668 73.5548 52.0047L67.0003 48.0012L60.4459 52.0047C59.0345 52.8668 57.2843 51.5952 57.6681 49.9864L59.4501 42.5157L53.6172 37.5192C52.3611 36.4432 53.0296 34.3858 54.6783 34.2536L62.3341 33.6399L65.2835 26.5485Z" fill="#262626"/>
</svg>
